M48
; DRILL file {KiCad (6.0.5)} date Mon May 30 11:03:14 2022
; FORMAT={-:-/ absolute / inch / decimal}
; #@! TF.CreationDate,2022-05-30T11:03:14+05:00
; #@! TF.GenerationSoftware,Kicad,Pcbnew,(6.0.5)
; #@! TF.FileFunction,Plated,1,2,PTH
FMAT,2
INCH
; #@! TA.AperFunction,Plated,PTH,ViaDrill
T1C0.0157
; #@! TA.AperFunction,Plated,PTH,ComponentDrill
T2C0.0512
%
G90
G05
T1
X4.2016Y-3.675
X4.2016Y-3.775
X4.3016Y-3.575
X4.3016Y-4.275
X4.3463Y-3.675
X4.3463Y-3.775
X4.4016Y-3.475
X4.4016Y-3.575
X4.4016Y-4.075
X4.4016Y-4.375
X4.5016Y-3.475
X4.5016Y-3.575
X4.5016Y-4.075
X4.5016Y-4.175
X4.5016Y-4.275
X4.5016Y-4.375
X4.6016Y-3.775
X4.7016Y-3.775
X4.7016Y-4.275
X4.7016Y-4.375
X4.7413Y-4.05
X4.7413Y-4.215
X4.8016Y-3.775
X4.8133Y-4.269
X4.9016Y-3.775
X4.9016Y-4.275
X4.9016Y-4.375
X5.0016Y-3.475
X5.0016Y-4.075
X5.0016Y-4.175
X5.0113Y-3.725
X5.0963Y-3.725
X5.1016Y-3.475
X5.1016Y-4.375
X5.2016Y-3.575
X5.2016Y-4.275
X5.3016Y-3.675
X5.3016Y-3.775
T2
X4.3436Y-3.9554
X4.3436Y-4.1523
X4.6477Y-3.6436
X4.8446Y-3.6436
X5.15Y-3.9531
X5.15Y-4.15
T0
M30
