%TF.GenerationSoftware,KiCad,Pcbnew,(6.0.5)*%
%TF.CreationDate,2022-05-30T14:14:04+05:00*%
%TF.ProjectId,multivib,6d756c74-6976-4696-922e-6b696361645f,rev?*%
%TF.SameCoordinates,Original*%
%TF.FileFunction,Copper,L1,Top*%
%TF.FilePolarity,Positive*%
%FSLAX46Y46*%
G04 Gerber Fmt 4.6, Leading zero omitted, Abs format (unit mm)*
G04 Created by KiCad (PCBNEW (6.0.5)) date 2022-05-30 14:14:04*
%MOMM*%
%LPD*%
G01*
G04 APERTURE LIST*
G04 Aperture macros list*
%AMRoundRect*
0 Rectangle with rounded corners*
0 $1 Rounding radius*
0 $2 $3 $4 $5 $6 $7 $8 $9 X,Y pos of 4 corners*
0 Add a 4 corners polygon primitive as box body*
4,1,4,$2,$3,$4,$5,$6,$7,$8,$9,$2,$3,0*
0 Add four circle primitives for the rounded corners*
1,1,$1+$1,$2,$3*
1,1,$1+$1,$4,$5*
1,1,$1+$1,$6,$7*
1,1,$1+$1,$8,$9*
0 Add four rect primitives between the rounded corners*
20,1,$1+$1,$2,$3,$4,$5,0*
20,1,$1+$1,$4,$5,$6,$7,0*
20,1,$1+$1,$6,$7,$8,$9,0*
20,1,$1+$1,$8,$9,$2,$3,0*%
G04 Aperture macros list end*
%TA.AperFunction,ComponentPad*%
%ADD10R,2.700000X2.700000*%
%TD*%
%TA.AperFunction,ComponentPad*%
%ADD11C,2.700000*%
%TD*%
%TA.AperFunction,SMDPad,CuDef*%
%ADD12RoundRect,0.150000X-0.587500X-0.150000X0.587500X-0.150000X0.587500X0.150000X-0.587500X0.150000X0*%
%TD*%
%TA.AperFunction,SMDPad,CuDef*%
%ADD13RoundRect,0.150000X0.150000X-0.587500X0.150000X0.587500X-0.150000X0.587500X-0.150000X-0.587500X0*%
%TD*%
%TA.AperFunction,SMDPad,CuDef*%
%ADD14RoundRect,0.250000X0.250000X0.475000X-0.250000X0.475000X-0.250000X-0.475000X0.250000X-0.475000X0*%
%TD*%
%TA.AperFunction,SMDPad,CuDef*%
%ADD15RoundRect,0.250000X-0.450000X0.350000X-0.450000X-0.350000X0.450000X-0.350000X0.450000X0.350000X0*%
%TD*%
%TA.AperFunction,SMDPad,CuDef*%
%ADD16RoundRect,0.150000X0.587500X0.150000X-0.587500X0.150000X-0.587500X-0.150000X0.587500X-0.150000X0*%
%TD*%
%TA.AperFunction,SMDPad,CuDef*%
%ADD17RoundRect,0.250000X0.350000X0.450000X-0.350000X0.450000X-0.350000X-0.450000X0.350000X-0.450000X0*%
%TD*%
%TA.AperFunction,SMDPad,CuDef*%
%ADD18RoundRect,0.243750X-0.456250X0.243750X-0.456250X-0.243750X0.456250X-0.243750X0.456250X0.243750X0*%
%TD*%
%TA.AperFunction,ViaPad*%
%ADD19C,0.800000*%
%TD*%
%TA.AperFunction,Conductor*%
%ADD20C,0.250000*%
%TD*%
G04 APERTURE END LIST*
D10*
%TO.P,J1,1*%
%TO.N,/out1*%
X110327500Y-100467500D03*
D11*
%TO.P,J1,2*%
%TO.N,GND*%
X110327500Y-105467500D03*
%TD*%
D12*
%TO.P,Q2,1,B*%
%TO.N,Net-(C1-Pad1)*%
X122252500Y-105095000D03*
%TO.P,Q2,2,E*%
%TO.N,GND*%
X122252500Y-106995000D03*
%TO.P,Q2,3,C*%
%TO.N,/out2*%
X124127500Y-106045000D03*
%TD*%
D13*
%TO.P,Q3,1,G*%
%TO.N,/out2*%
X127225000Y-93012500D03*
%TO.P,Q3,2,S*%
%TO.N,GND*%
X129125000Y-93012500D03*
%TO.P,Q3,3,D*%
%TO.N,Net-(D1-Pad1)*%
X128175000Y-91137500D03*
%TD*%
D14*
%TO.P,C4,1*%
%TO.N,Net-(C3-Pad1)*%
X113980000Y-95885000D03*
%TO.P,C4,2*%
%TO.N,GND*%
X112080000Y-95885000D03*
%TD*%
%TO.P,C3,1*%
%TO.N,Net-(C3-Pad1)*%
X113980000Y-93345000D03*
%TO.P,C3,2*%
%TO.N,GND*%
X112080000Y-93345000D03*
%TD*%
D15*
%TO.P,R2,1*%
%TO.N,Net-(C3-Pad1)*%
X119380000Y-98695000D03*
%TO.P,R2,2*%
%TO.N,Net-(C1-Pad1)*%
X119380000Y-100695000D03*
%TD*%
D10*
%TO.P,J2,1*%
%TO.N,GND*%
X123052500Y-92547500D03*
D11*
%TO.P,J2,2*%
%TO.N,Net-(C3-Pad1)*%
X118052500Y-92547500D03*
%TD*%
D14*
%TO.P,C2,1*%
%TO.N,/out2*%
X124140000Y-102870000D03*
%TO.P,C2,2*%
%TO.N,Net-(C2-Pad2)*%
X122240000Y-102870000D03*
%TD*%
D16*
%TO.P,Q1,1,B*%
%TO.N,Net-(C2-Pad2)*%
X119047500Y-106995000D03*
%TO.P,Q1,2,E*%
%TO.N,GND*%
X119047500Y-105095000D03*
%TO.P,Q1,3,C*%
%TO.N,/out1*%
X117172500Y-106045000D03*
%TD*%
D14*
%TO.P,C1,1*%
%TO.N,Net-(C1-Pad1)*%
X119060000Y-102870000D03*
%TO.P,C1,2*%
%TO.N,/out1*%
X117160000Y-102870000D03*
%TD*%
D17*
%TO.P,R5,1*%
%TO.N,Net-(D1-Pad2)*%
X129270000Y-96520000D03*
%TO.P,R5,2*%
%TO.N,Net-(C3-Pad1)*%
X127270000Y-96520000D03*
%TD*%
D10*
%TO.P,J3,1*%
%TO.N,GND*%
X130810000Y-105410000D03*
D11*
%TO.P,J3,2*%
%TO.N,/out2*%
X130810000Y-100410000D03*
%TD*%
D18*
%TO.P,D1,1,K*%
%TO.N,Net-(D1-Pad1)*%
X131445000Y-94312500D03*
%TO.P,D1,2,A*%
%TO.N,Net-(D1-Pad2)*%
X131445000Y-96187500D03*
%TD*%
D15*
%TO.P,R1,1*%
%TO.N,Net-(C3-Pad1)*%
X116840000Y-98695000D03*
%TO.P,R1,2*%
%TO.N,/out1*%
X116840000Y-100695000D03*
%TD*%
%TO.P,R4,1*%
%TO.N,Net-(C3-Pad1)*%
X124460000Y-98695000D03*
%TO.P,R4,2*%
%TO.N,/out2*%
X124460000Y-100695000D03*
%TD*%
%TO.P,R3,1*%
%TO.N,Net-(C3-Pad1)*%
X121920000Y-98695000D03*
%TO.P,R3,2*%
%TO.N,Net-(C2-Pad2)*%
X121920000Y-100695000D03*
%TD*%
D19*
%TO.N,Net-(C2-Pad2)*%
X120428000Y-102870000D03*
X120428000Y-107061000D03*
%TO.N,GND*%
X114340000Y-111125000D03*
X116880000Y-95885000D03*
X132120000Y-108585000D03*
X124500000Y-111125000D03*
X119420000Y-95885000D03*
X114340000Y-108585000D03*
X124500000Y-95885000D03*
X111800000Y-90805000D03*
X114340000Y-88265000D03*
X114340000Y-106045000D03*
X109260000Y-90805000D03*
X119420000Y-111125000D03*
X124500000Y-108585000D03*
X110395000Y-95885000D03*
X109260000Y-108585000D03*
X129580000Y-111125000D03*
X122256800Y-108432600D03*
X129580000Y-88265000D03*
X134660000Y-95885000D03*
X114340000Y-103505000D03*
X111800000Y-88265000D03*
X110395000Y-93345000D03*
X121960000Y-95885000D03*
X129445000Y-94615000D03*
X134660000Y-93345000D03*
X114340000Y-90805000D03*
X111800000Y-111125000D03*
X127040000Y-106045000D03*
X111800000Y-103505000D03*
X106720000Y-93345000D03*
X127040000Y-88265000D03*
X132120000Y-90805000D03*
X119420000Y-108585000D03*
X127040000Y-103505000D03*
X106720000Y-95885000D03*
%TO.N,/out2*%
X127286000Y-94615000D03*
%TD*%
D20*
%TO.N,Net-(C1-Pad1)*%
X119412000Y-104267000D02*
X121952000Y-104267000D01*
X119060000Y-101825000D02*
X119060000Y-102870000D01*
X122252500Y-104567500D02*
X122252500Y-105095000D01*
X119060000Y-102870000D02*
X119060000Y-103915000D01*
X119380000Y-101505000D02*
X119060000Y-101825000D01*
X119380000Y-100695000D02*
X119380000Y-101505000D01*
X121952000Y-104267000D02*
X122252500Y-104567500D01*
X119060000Y-103915000D02*
X119412000Y-104267000D01*
%TO.N,/out1*%
X117160000Y-106032500D02*
X117172500Y-106045000D01*
X114602000Y-100457000D02*
X110338000Y-100457000D01*
X110338000Y-100457000D02*
X110327500Y-100467500D01*
X114840000Y-100695000D02*
X114602000Y-100457000D01*
X117160000Y-101880000D02*
X116840000Y-101560000D01*
X116840000Y-101560000D02*
X116840000Y-100695000D01*
X117160000Y-102870000D02*
X117160000Y-106032500D01*
X117160000Y-102870000D02*
X117160000Y-101880000D01*
X116840000Y-100695000D02*
X114840000Y-100695000D01*
%TO.N,Net-(C2-Pad2)*%
X121920000Y-101560000D02*
X122240000Y-101880000D01*
X120428000Y-107061000D02*
X119113500Y-107061000D01*
X121920000Y-100695000D02*
X121920000Y-101560000D01*
X120428000Y-102870000D02*
X122240000Y-102870000D01*
X122240000Y-101880000D02*
X122240000Y-102870000D01*
X119113500Y-107061000D02*
X119047500Y-106995000D01*
%TO.N,GND*%
X122252500Y-108428300D02*
X122252500Y-106995000D01*
X129125000Y-93012500D02*
X129125000Y-94295000D01*
X129125000Y-94295000D02*
X129445000Y-94615000D01*
X112046000Y-93311000D02*
X112080000Y-93345000D01*
X110429000Y-93311000D02*
X112046000Y-93311000D01*
X120352500Y-105095000D02*
X122252500Y-106995000D01*
X122256800Y-108432600D02*
X122252500Y-108428300D01*
X110395000Y-95885000D02*
X112080000Y-95885000D01*
X110395000Y-93345000D02*
X110429000Y-93311000D01*
X119047500Y-105095000D02*
X120352500Y-105095000D01*
%TO.N,/out2*%
X127225000Y-94554000D02*
X127286000Y-94615000D01*
X124140000Y-101825000D02*
X124140000Y-102870000D01*
X126571000Y-100410000D02*
X130810000Y-100410000D01*
X127225000Y-93012500D02*
X127225000Y-94554000D01*
X124127500Y-102882500D02*
X124140000Y-102870000D01*
X124476000Y-100711000D02*
X126270000Y-100711000D01*
X124460000Y-100695000D02*
X124460000Y-101505000D01*
X124127500Y-106045000D02*
X124127500Y-102882500D01*
X126270000Y-100711000D02*
X126571000Y-100410000D01*
X124460000Y-101505000D02*
X124140000Y-101825000D01*
X124460000Y-100695000D02*
X124476000Y-100711000D01*
%TO.N,Net-(C3-Pad1)*%
X127270000Y-96520000D02*
X127270000Y-98187000D01*
X113980000Y-95885000D02*
X113980000Y-93345000D01*
X119380000Y-98695000D02*
X116840000Y-98695000D01*
X124460000Y-98695000D02*
X121920000Y-98695000D01*
X126762000Y-98695000D02*
X124460000Y-98695000D01*
X115856000Y-93345000D02*
X116653500Y-92547500D01*
X114475000Y-98695000D02*
X113980000Y-98200000D01*
X113980000Y-98200000D02*
X113980000Y-95885000D01*
X113980000Y-93345000D02*
X115856000Y-93345000D01*
X116840000Y-98695000D02*
X114475000Y-98695000D01*
X121920000Y-98695000D02*
X119380000Y-98695000D01*
X127270000Y-98187000D02*
X126762000Y-98695000D01*
X116653500Y-92547500D02*
X118052500Y-92547500D01*
%TO.N,Net-(D1-Pad1)*%
X131445000Y-92170000D02*
X130412500Y-91137500D01*
X130412500Y-91137500D02*
X128175000Y-91137500D01*
X131445000Y-94312500D02*
X131445000Y-92170000D01*
%TO.N,Net-(D1-Pad2)*%
X129602500Y-96187500D02*
X129270000Y-96520000D01*
X131445000Y-96187500D02*
X129602500Y-96187500D01*
%TD*%
%TA.AperFunction,Conductor*%
%TO.N,GND*%
G36*
X133668169Y-86368018D02*
G01*
X133679641Y-86370656D01*
X133690516Y-86368195D01*
X133700727Y-86368213D01*
X133711830Y-86367288D01*
X133888468Y-86377208D01*
X133987899Y-86382792D01*
X133998922Y-86384034D01*
X134212302Y-86420288D01*
X134297461Y-86434757D01*
X134308285Y-86437227D01*
X134599279Y-86521062D01*
X134609751Y-86524726D01*
X134889530Y-86640614D01*
X134899520Y-86645425D01*
X135164563Y-86791910D01*
X135173948Y-86797806D01*
X135420937Y-86973054D01*
X135429605Y-86979967D01*
X135655407Y-87181757D01*
X135663243Y-87189593D01*
X135865033Y-87415395D01*
X135871946Y-87424063D01*
X136047194Y-87671052D01*
X136053090Y-87680437D01*
X136134893Y-87828447D01*
X136199572Y-87945474D01*
X136204386Y-87955470D01*
X136277565Y-88132140D01*
X136320273Y-88235246D01*
X136323938Y-88245721D01*
X136379738Y-88439402D01*
X136407773Y-88536715D01*
X136410243Y-88547539D01*
X136458235Y-88829998D01*
X136460966Y-88846074D01*
X136462209Y-88857106D01*
X136477684Y-89132651D01*
X136476834Y-89142626D01*
X136476862Y-89142626D01*
X136476842Y-89153777D01*
X136474344Y-89164641D01*
X136476804Y-89175513D01*
X136477059Y-89176638D01*
X136479500Y-89198488D01*
X136479500Y-110630983D01*
X136476982Y-110653169D01*
X136474344Y-110664641D01*
X136476805Y-110675516D01*
X136476787Y-110685727D01*
X136477712Y-110696830D01*
X136462209Y-110972894D01*
X136460966Y-110983922D01*
X136457503Y-111004309D01*
X136410243Y-111282461D01*
X136407773Y-111293285D01*
X136323940Y-111584275D01*
X136320274Y-111594751D01*
X136204418Y-111874455D01*
X136204389Y-111874524D01*
X136199575Y-111884520D01*
X136053090Y-112149563D01*
X136047194Y-112158948D01*
X135871946Y-112405937D01*
X135865033Y-112414605D01*
X135663243Y-112640407D01*
X135655407Y-112648243D01*
X135429605Y-112850033D01*
X135420937Y-112856946D01*
X135173948Y-113032194D01*
X135164563Y-113038090D01*
X134899520Y-113184575D01*
X134889530Y-113189386D01*
X134609751Y-113305274D01*
X134599279Y-113308938D01*
X134405598Y-113364738D01*
X134308285Y-113392773D01*
X134297461Y-113395243D01*
X134212302Y-113409712D01*
X133998922Y-113445966D01*
X133987898Y-113447208D01*
X133712346Y-113462684D01*
X133702374Y-113461834D01*
X133702374Y-113461862D01*
X133691223Y-113461842D01*
X133680359Y-113459344D01*
X133668359Y-113462059D01*
X133646512Y-113464500D01*
X107214017Y-113464500D01*
X107191831Y-113461982D01*
X107191813Y-113461978D01*
X107180359Y-113459344D01*
X107169484Y-113461805D01*
X107159273Y-113461787D01*
X107148170Y-113462712D01*
X106971532Y-113452792D01*
X106872101Y-113447208D01*
X106861078Y-113445966D01*
X106647698Y-113409712D01*
X106562539Y-113395243D01*
X106551715Y-113392773D01*
X106454402Y-113364738D01*
X106260721Y-113308938D01*
X106250249Y-113305274D01*
X105970470Y-113189386D01*
X105960480Y-113184575D01*
X105695437Y-113038090D01*
X105686052Y-113032194D01*
X105439063Y-112856946D01*
X105430395Y-112850033D01*
X105204593Y-112648243D01*
X105196757Y-112640407D01*
X104994967Y-112414605D01*
X104988054Y-112405937D01*
X104812806Y-112158948D01*
X104806910Y-112149563D01*
X104660425Y-111884520D01*
X104655611Y-111874524D01*
X104655583Y-111874455D01*
X104539726Y-111594751D01*
X104536060Y-111584275D01*
X104452227Y-111293285D01*
X104449757Y-111282461D01*
X104402497Y-111004309D01*
X104401765Y-111000000D01*
X105644341Y-111000000D01*
X105664937Y-111235408D01*
X105726097Y-111463663D01*
X105825965Y-111677829D01*
X105961505Y-111871401D01*
X106128599Y-112038495D01*
X106322171Y-112174035D01*
X106536337Y-112273903D01*
X106764592Y-112335063D01*
X106849431Y-112342486D01*
X106938870Y-112350311D01*
X106938878Y-112350311D01*
X106941034Y-112350500D01*
X107058966Y-112350500D01*
X107061122Y-112350311D01*
X107061130Y-112350311D01*
X107150569Y-112342486D01*
X107235408Y-112335063D01*
X107463663Y-112273903D01*
X107677829Y-112174035D01*
X107871401Y-112038495D01*
X108038495Y-111871401D01*
X108171554Y-111681374D01*
X108171554Y-111681373D01*
X108174035Y-111677830D01*
X108273903Y-111463663D01*
X108335063Y-111235408D01*
X108355659Y-111000000D01*
X132644341Y-111000000D01*
X132664937Y-111235408D01*
X132726097Y-111463663D01*
X132825965Y-111677829D01*
X132961505Y-111871401D01*
X133128599Y-112038495D01*
X133322171Y-112174035D01*
X133536337Y-112273903D01*
X133764592Y-112335063D01*
X133849431Y-112342486D01*
X133938870Y-112350311D01*
X133938878Y-112350311D01*
X133941034Y-112350500D01*
X134058966Y-112350500D01*
X134061122Y-112350311D01*
X134061130Y-112350311D01*
X134150569Y-112342486D01*
X134235408Y-112335063D01*
X134463663Y-112273903D01*
X134677829Y-112174035D01*
X134871401Y-112038495D01*
X135038495Y-111871401D01*
X135171554Y-111681374D01*
X135171554Y-111681373D01*
X135174035Y-111677830D01*
X135273903Y-111463663D01*
X135335063Y-111235408D01*
X135355659Y-111000000D01*
X135335063Y-110764592D01*
X135273903Y-110536337D01*
X135174035Y-110322171D01*
X135038495Y-110128599D01*
X134871401Y-109961505D01*
X134677829Y-109825965D01*
X134463663Y-109726097D01*
X134235408Y-109664937D01*
X134150569Y-109657514D01*
X134061130Y-109649689D01*
X134061122Y-109649689D01*
X134058966Y-109649500D01*
X133941034Y-109649500D01*
X133938878Y-109649689D01*
X133938870Y-109649689D01*
X133849431Y-109657514D01*
X133764592Y-109664937D01*
X133536337Y-109726097D01*
X133322171Y-109825965D01*
X133128599Y-109961505D01*
X132961505Y-110128599D01*
X132959026Y-110132140D01*
X132828447Y-110318625D01*
X132828446Y-110318627D01*
X132825965Y-110322170D01*
X132726097Y-110536337D01*
X132664937Y-110764592D01*
X132644341Y-111000000D01*
X108355659Y-111000000D01*
X108335063Y-110764592D01*
X108273903Y-110536337D01*
X108174035Y-110322171D01*
X108038495Y-110128599D01*
X107871401Y-109961505D01*
X107677829Y-109825965D01*
X107463663Y-109726097D01*
X107235408Y-109664937D01*
X107150569Y-109657514D01*
X107061130Y-109649689D01*
X107061122Y-109649689D01*
X107058966Y-109649500D01*
X106941034Y-109649500D01*
X106938878Y-109649689D01*
X106938870Y-109649689D01*
X106849431Y-109657514D01*
X106764592Y-109664937D01*
X106536337Y-109726097D01*
X106322171Y-109825965D01*
X106128599Y-109961505D01*
X105961505Y-110128599D01*
X105959026Y-110132140D01*
X105828447Y-110318625D01*
X105828446Y-110318627D01*
X105825965Y-110322170D01*
X105726097Y-110536337D01*
X105664937Y-110764592D01*
X105644341Y-111000000D01*
X104401765Y-111000000D01*
X104399034Y-110983922D01*
X104397791Y-110972894D01*
X104382331Y-110697604D01*
X104384122Y-110676795D01*
X104383747Y-110676752D01*
X104384388Y-110671184D01*
X104385655Y-110665718D01*
X104385656Y-110665000D01*
X104383096Y-110653776D01*
X104382980Y-110653266D01*
X104380500Y-110631248D01*
X104380500Y-107178218D01*
X118109500Y-107178218D01*
X118119642Y-107247112D01*
X118171068Y-107351855D01*
X118176859Y-107357636D01*
X118212679Y-107393393D01*
X118253650Y-107434293D01*
X118358482Y-107485536D01*
X118366084Y-107486645D01*
X118366087Y-107486646D01*
X118423237Y-107494983D01*
X118423239Y-107494983D01*
X118426782Y-107495500D01*
X119668218Y-107495500D01*
X119671801Y-107494972D01*
X119671808Y-107494972D01*
X119729499Y-107486479D01*
X119729501Y-107486478D01*
X119737112Y-107485358D01*
X119744019Y-107481967D01*
X119834511Y-107437538D01*
X119834512Y-107437537D01*
X119841695Y-107434011D01*
X119841697Y-107434010D01*
X119841855Y-107433932D01*
X119841867Y-107433956D01*
X119895963Y-107416794D01*
X119954020Y-107436107D01*
X119973814Y-107455523D01*
X119999718Y-107489282D01*
X120125159Y-107585536D01*
X120271238Y-107646044D01*
X120428000Y-107666682D01*
X120584762Y-107646044D01*
X120730841Y-107585536D01*
X120856282Y-107489282D01*
X120952536Y-107363841D01*
X121013044Y-107217762D01*
X121018732Y-107174557D01*
X121315001Y-107174557D01*
X121315528Y-107181754D01*
X121324006Y-107239355D01*
X121328517Y-107253873D01*
X121372873Y-107344216D01*
X121382270Y-107357342D01*
X121453152Y-107428101D01*
X121466294Y-107437474D01*
X121556722Y-107481676D01*
X121571231Y-107486161D01*
X121628278Y-107494483D01*
X121635405Y-107495000D01*
X122111820Y-107495000D01*
X122124505Y-107490878D01*
X122127500Y-107486757D01*
X122127500Y-107479319D01*
X122377500Y-107479319D01*
X122381622Y-107492004D01*
X122385743Y-107494999D01*
X122869557Y-107494999D01*
X122876754Y-107494472D01*
X122934355Y-107485994D01*
X122948873Y-107481483D01*
X123039216Y-107437127D01*
X123052342Y-107427730D01*
X123123101Y-107356848D01*
X123132474Y-107343706D01*
X123176676Y-107253278D01*
X123181161Y-107238769D01*
X123189483Y-107181722D01*
X123190000Y-107174595D01*
X123190000Y-107135680D01*
X123185878Y-107122995D01*
X123181757Y-107120000D01*
X122393180Y-107120000D01*
X122380495Y-107124122D01*
X122377500Y-107128243D01*
X122377500Y-107479319D01*
X122127500Y-107479319D01*
X122127500Y-107135680D01*
X122123378Y-107122995D01*
X122119257Y-107120000D01*
X121330681Y-107120000D01*
X121317996Y-107124122D01*
X121315001Y-107128243D01*
X121315001Y-107174557D01*
X121018732Y-107174557D01*
X121033682Y-107061000D01*
X121013044Y-106904238D01*
X120992367Y-106854320D01*
X121315000Y-106854320D01*
X121319122Y-106867005D01*
X121323243Y-106870000D01*
X122111820Y-106870000D01*
X122124505Y-106865878D01*
X122127500Y-106861757D01*
X122127500Y-106854320D01*
X122377500Y-106854320D01*
X122381622Y-106867005D01*
X122385743Y-106870000D01*
X123174319Y-106870000D01*
X123187004Y-106865878D01*
X123189999Y-106861757D01*
X123189999Y-106815443D01*
X123189472Y-106808246D01*
X123184555Y-106774840D01*
X129260000Y-106774840D01*
X129260948Y-106784462D01*
X129269702Y-106828474D01*
X129277021Y-106846142D01*
X129310389Y-106896082D01*
X129323918Y-106909611D01*
X129373858Y-106942979D01*
X129391526Y-106950298D01*
X129435538Y-106959052D01*
X129445160Y-106960000D01*
X130669320Y-106960000D01*
X130682005Y-106955878D01*
X130685000Y-106951757D01*
X130685000Y-106944320D01*
X130935000Y-106944320D01*
X130939122Y-106957005D01*
X130943243Y-106960000D01*
X132174840Y-106960000D01*
X132184462Y-106959052D01*
X132228474Y-106950298D01*
X132246142Y-106942979D01*
X132296082Y-106909611D01*
X132309611Y-106896082D01*
X132342979Y-106846142D01*
X132350298Y-106828474D01*
X132359052Y-106784462D01*
X132360000Y-106774840D01*
X132360000Y-105550680D01*
X132355878Y-105537995D01*
X132351757Y-105535000D01*
X130950680Y-105535000D01*
X130937995Y-105539122D01*
X130935000Y-105543243D01*
X130935000Y-106944320D01*
X130685000Y-106944320D01*
X130685000Y-105550680D01*
X130680878Y-105537995D01*
X130676757Y-105535000D01*
X129275680Y-105535000D01*
X129262995Y-105539122D01*
X129260000Y-105543243D01*
X129260000Y-106774840D01*
X123184555Y-106774840D01*
X123180994Y-106750645D01*
X123176483Y-106736127D01*
X123132127Y-106645784D01*
X123122730Y-106632658D01*
X123051848Y-106561899D01*
X123038706Y-106552526D01*
X122948278Y-106508324D01*
X122933769Y-106503839D01*
X122876722Y-106495517D01*
X122869595Y-106495000D01*
X122393180Y-106495000D01*
X122380495Y-106499122D01*
X122377500Y-106503243D01*
X122377500Y-106854320D01*
X122127500Y-106854320D01*
X122127500Y-106510681D01*
X122123378Y-106497996D01*
X122119257Y-106495001D01*
X121635443Y-106495001D01*
X121628246Y-106495528D01*
X121570645Y-106504006D01*
X121556127Y-106508517D01*
X121465784Y-106552873D01*
X121452658Y-106562270D01*
X121381899Y-106633152D01*
X121372526Y-106646294D01*
X121328324Y-106736722D01*
X121323839Y-106751231D01*
X121315517Y-106808278D01*
X121315000Y-106815405D01*
X121315000Y-106854320D01*
X120992367Y-106854320D01*
X120952536Y-106758159D01*
X120856282Y-106632718D01*
X120730841Y-106536464D01*
X120584762Y-106475956D01*
X120428000Y-106455318D01*
X120271238Y-106475956D01*
X120125159Y-106536464D01*
X120022612Y-106615151D01*
X119964939Y-106635574D01*
X119906273Y-106618197D01*
X119892405Y-106606673D01*
X119847140Y-106561487D01*
X119841350Y-106555707D01*
X119736518Y-106504464D01*
X119728916Y-106503355D01*
X119728913Y-106503354D01*
X119671763Y-106495017D01*
X119671761Y-106495017D01*
X119668218Y-106494500D01*
X118426782Y-106494500D01*
X118423199Y-106495028D01*
X118423192Y-106495028D01*
X118365501Y-106503521D01*
X118365499Y-106503522D01*
X118357888Y-106504642D01*
X118350982Y-106508033D01*
X118350981Y-106508033D01*
X118345588Y-106510681D01*
X118253145Y-106556068D01*
X118170707Y-106638650D01*
X118119464Y-106743482D01*
X118118355Y-106751084D01*
X118118354Y-106751087D01*
X118110017Y-106808237D01*
X118109500Y-106811782D01*
X118109500Y-107178218D01*
X104380500Y-107178218D01*
X104380500Y-106649134D01*
X109328472Y-106649134D01*
X109328970Y-106652278D01*
X109330855Y-106654670D01*
X109410656Y-106722826D01*
X109416936Y-106727388D01*
X109618320Y-106850797D01*
X109625232Y-106854319D01*
X109843452Y-106944709D01*
X109850820Y-106947103D01*
X110080504Y-107002245D01*
X110088147Y-107003456D01*
X110323625Y-107021988D01*
X110331375Y-107021988D01*
X110566853Y-107003456D01*
X110574496Y-107002245D01*
X110804180Y-106947103D01*
X110811548Y-106944709D01*
X111029768Y-106854319D01*
X111036680Y-106850797D01*
X111238064Y-106727388D01*
X111244344Y-106722826D01*
X111319636Y-106658521D01*
X111326606Y-106647148D01*
X111326356Y-106643972D01*
X111324667Y-106641444D01*
X110338586Y-105655363D01*
X110326703Y-105649309D01*
X110321672Y-105650105D01*
X109334526Y-106637251D01*
X109328472Y-106649134D01*
X104380500Y-106649134D01*
X104380500Y-105471375D01*
X108773012Y-105471375D01*
X108791544Y-105706853D01*
X108792755Y-105714496D01*
X108847897Y-105944180D01*
X108850291Y-105951548D01*
X108940681Y-106169768D01*
X108944203Y-106176680D01*
X109067612Y-106378064D01*
X109072174Y-106384344D01*
X109136479Y-106459636D01*
X109147852Y-106466606D01*
X109151028Y-106466356D01*
X109153556Y-106464667D01*
X110139637Y-105478586D01*
X110144879Y-105468297D01*
X110509309Y-105468297D01*
X110510105Y-105473328D01*
X111497251Y-106460474D01*
X111509134Y-106466528D01*
X111512278Y-106466030D01*
X111514670Y-106464145D01*
X111582826Y-106384344D01*
X111587388Y-106378064D01*
X111710797Y-106176680D01*
X111714319Y-106169768D01*
X111804709Y-105951548D01*
X111807103Y-105944180D01*
X111862245Y-105714496D01*
X111863456Y-105706853D01*
X111881988Y-105471375D01*
X111881988Y-105463625D01*
X111863456Y-105228147D01*
X111862245Y-105220504D01*
X111807103Y-104990820D01*
X111804709Y-104983452D01*
X111714319Y-104765232D01*
X111710797Y-104758320D01*
X111587388Y-104556936D01*
X111582826Y-104550656D01*
X111518521Y-104475364D01*
X111507148Y-104468394D01*
X111503972Y-104468644D01*
X111501444Y-104470333D01*
X110515363Y-105456414D01*
X110509309Y-105468297D01*
X110144879Y-105468297D01*
X110145691Y-105466703D01*
X110144895Y-105461672D01*
X109157749Y-104474526D01*
X109145866Y-104468472D01*
X109142722Y-104468970D01*
X109140330Y-104470855D01*
X109072174Y-104550656D01*
X109067612Y-104556936D01*
X108944203Y-104758320D01*
X108940681Y-104765232D01*
X108850291Y-104983452D01*
X108847897Y-104990820D01*
X108792755Y-105220504D01*
X108791544Y-105228147D01*
X108773012Y-105463625D01*
X108773012Y-105471375D01*
X104380500Y-105471375D01*
X104380500Y-104287852D01*
X109328394Y-104287852D01*
X109328644Y-104291028D01*
X109330333Y-104293556D01*
X110316414Y-105279637D01*
X110328297Y-105285691D01*
X110333328Y-105284895D01*
X111320474Y-104297749D01*
X111326528Y-104285866D01*
X111326030Y-104282722D01*
X111324145Y-104280330D01*
X111244344Y-104212174D01*
X111238064Y-104207612D01*
X111036680Y-104084203D01*
X111029768Y-104080681D01*
X110811548Y-103990291D01*
X110804180Y-103987897D01*
X110574496Y-103932755D01*
X110566853Y-103931544D01*
X110331375Y-103913012D01*
X110323625Y-103913012D01*
X110088147Y-103931544D01*
X110080504Y-103932755D01*
X109850820Y-103987897D01*
X109843452Y-103990291D01*
X109625232Y-104080681D01*
X109618320Y-104084203D01*
X109416936Y-104207612D01*
X109410656Y-104212174D01*
X109335364Y-104276479D01*
X109328394Y-104287852D01*
X104380500Y-104287852D01*
X104380500Y-101837248D01*
X108777000Y-101837248D01*
X108779774Y-101851193D01*
X108783964Y-101872256D01*
X108788633Y-101895731D01*
X108832948Y-101962052D01*
X108899269Y-102006367D01*
X108908832Y-102008269D01*
X108908834Y-102008270D01*
X108931505Y-102012779D01*
X108957752Y-102018000D01*
X111697248Y-102018000D01*
X111723495Y-102012779D01*
X111746166Y-102008270D01*
X111746168Y-102008269D01*
X111755731Y-102006367D01*
X111822052Y-101962052D01*
X111866367Y-101895731D01*
X111871037Y-101872256D01*
X111875226Y-101851193D01*
X111878000Y-101837248D01*
X111878000Y-100881500D01*
X111896907Y-100823309D01*
X111946407Y-100787345D01*
X111977000Y-100782500D01*
X114426166Y-100782500D01*
X114484357Y-100801407D01*
X114496170Y-100811496D01*
X114596731Y-100912057D01*
X114602565Y-100918424D01*
X114627545Y-100948194D01*
X114661205Y-100967627D01*
X114668489Y-100972268D01*
X114700316Y-100994554D01*
X114708684Y-100996796D01*
X114713971Y-100999262D01*
X114719456Y-101001258D01*
X114726955Y-101005588D01*
X114735481Y-101007091D01*
X114735483Y-101007092D01*
X114765216Y-101012334D01*
X114773651Y-101014204D01*
X114801207Y-101021588D01*
X114811193Y-101024264D01*
X114849908Y-101020877D01*
X114858537Y-101020500D01*
X115842012Y-101020500D01*
X115900203Y-101039407D01*
X115936167Y-101088907D01*
X115940573Y-101110183D01*
X115942481Y-101130369D01*
X115987366Y-101258184D01*
X116067850Y-101367150D01*
X116176816Y-101447634D01*
X116304631Y-101492519D01*
X116310638Y-101493087D01*
X116310639Y-101493087D01*
X116333855Y-101495282D01*
X116333865Y-101495282D01*
X116336166Y-101495500D01*
X116413366Y-101495500D01*
X116471557Y-101514407D01*
X116507521Y-101563907D01*
X116511292Y-101582447D01*
X116510736Y-101588807D01*
X116512978Y-101597173D01*
X116520796Y-101626349D01*
X116522666Y-101634783D01*
X116529412Y-101673045D01*
X116533742Y-101680544D01*
X116535738Y-101686029D01*
X116538204Y-101691316D01*
X116540446Y-101699684D01*
X116552890Y-101717455D01*
X116562732Y-101731511D01*
X116567371Y-101738792D01*
X116586806Y-101772455D01*
X116612176Y-101793743D01*
X116616570Y-101797430D01*
X116622938Y-101803264D01*
X116681775Y-101862101D01*
X116709552Y-101916618D01*
X116699981Y-101977050D01*
X116670590Y-102011737D01*
X116587850Y-102072850D01*
X116507366Y-102181816D01*
X116462481Y-102309631D01*
X116459500Y-102341166D01*
X116459500Y-103398834D01*
X116462481Y-103430369D01*
X116507366Y-103558184D01*
X116587850Y-103667150D01*
X116696816Y-103747634D01*
X116754357Y-103767841D01*
X116768302Y-103772738D01*
X116816941Y-103809858D01*
X116834500Y-103866146D01*
X116834500Y-105445500D01*
X116815593Y-105503691D01*
X116766093Y-105539655D01*
X116735500Y-105544500D01*
X116551782Y-105544500D01*
X116548199Y-105545028D01*
X116548192Y-105545028D01*
X116490501Y-105553521D01*
X116490499Y-105553522D01*
X116482888Y-105554642D01*
X116378145Y-105606068D01*
X116295707Y-105688650D01*
X116244464Y-105793482D01*
X116243355Y-105801084D01*
X116243354Y-105801087D01*
X116235024Y-105858192D01*
X116234500Y-105861782D01*
X116234500Y-106228218D01*
X116244642Y-106297112D01*
X116296068Y-106401855D01*
X116378650Y-106484293D01*
X116483482Y-106535536D01*
X116491084Y-106536645D01*
X116491087Y-106536646D01*
X116548237Y-106544983D01*
X116548239Y-106544983D01*
X116551782Y-106545500D01*
X117793218Y-106545500D01*
X117796801Y-106544972D01*
X117796808Y-106544972D01*
X117854499Y-106536479D01*
X117854501Y-106536478D01*
X117862112Y-106535358D01*
X117966855Y-106483932D01*
X117986608Y-106464145D01*
X118043513Y-106407140D01*
X118049293Y-106401350D01*
X118100536Y-106296518D01*
X118101645Y-106288916D01*
X118101646Y-106288913D01*
X118109983Y-106231763D01*
X118109983Y-106231761D01*
X118110500Y-106228218D01*
X123189500Y-106228218D01*
X123199642Y-106297112D01*
X123251068Y-106401855D01*
X123333650Y-106484293D01*
X123438482Y-106535536D01*
X123446084Y-106536645D01*
X123446087Y-106536646D01*
X123503237Y-106544983D01*
X123503239Y-106544983D01*
X123506782Y-106545500D01*
X124748218Y-106545500D01*
X124751801Y-106544972D01*
X124751808Y-106544972D01*
X124809499Y-106536479D01*
X124809501Y-106536478D01*
X124817112Y-106535358D01*
X124921855Y-106483932D01*
X124941608Y-106464145D01*
X124998513Y-106407140D01*
X125004293Y-106401350D01*
X125055536Y-106296518D01*
X125056645Y-106288916D01*
X125056646Y-106288913D01*
X125064983Y-106231763D01*
X125064983Y-106231761D01*
X125065500Y-106228218D01*
X125065500Y-105861782D01*
X125055358Y-105792888D01*
X125003932Y-105688145D01*
X124921350Y-105605707D01*
X124816518Y-105554464D01*
X124808916Y-105553355D01*
X124808913Y-105553354D01*
X124751763Y-105545017D01*
X124751761Y-105545017D01*
X124748218Y-105544500D01*
X124552000Y-105544500D01*
X124493809Y-105525593D01*
X124457845Y-105476093D01*
X124453000Y-105445500D01*
X124453000Y-105269320D01*
X129260000Y-105269320D01*
X129264122Y-105282005D01*
X129268243Y-105285000D01*
X130669320Y-105285000D01*
X130682005Y-105280878D01*
X130685000Y-105276757D01*
X130685000Y-105269320D01*
X130935000Y-105269320D01*
X130939122Y-105282005D01*
X130943243Y-105285000D01*
X132344320Y-105285000D01*
X132357005Y-105280878D01*
X132360000Y-105276757D01*
X132360000Y-104045160D01*
X132359052Y-104035538D01*
X132350298Y-103991526D01*
X132342979Y-103973858D01*
X132309611Y-103923918D01*
X132296082Y-103910389D01*
X132246142Y-103877021D01*
X132228474Y-103869702D01*
X132184462Y-103860948D01*
X132174840Y-103860000D01*
X130950680Y-103860000D01*
X130937995Y-103864122D01*
X130935000Y-103868243D01*
X130935000Y-105269320D01*
X130685000Y-105269320D01*
X130685000Y-103875680D01*
X130680878Y-103862995D01*
X130676757Y-103860000D01*
X129445160Y-103860000D01*
X129435538Y-103860948D01*
X129391526Y-103869702D01*
X129373858Y-103877021D01*
X129323918Y-103910389D01*
X129310389Y-103923918D01*
X129277021Y-103973858D01*
X129269702Y-103991526D01*
X129260948Y-104035538D01*
X129260000Y-104045160D01*
X129260000Y-105269320D01*
X124453000Y-105269320D01*
X124453000Y-103870535D01*
X124471907Y-103812344D01*
X124519197Y-103777128D01*
X124603184Y-103747634D01*
X124712150Y-103667150D01*
X124792634Y-103558184D01*
X124837519Y-103430369D01*
X124840500Y-103398834D01*
X124840500Y-102341166D01*
X124837519Y-102309631D01*
X124792634Y-102181816D01*
X124712150Y-102072850D01*
X124603184Y-101992366D01*
X124603999Y-101991263D01*
X124566952Y-101953035D01*
X124558330Y-101892460D01*
X124585852Y-101839475D01*
X124677069Y-101748258D01*
X124683424Y-101742435D01*
X124713194Y-101717455D01*
X124732636Y-101683781D01*
X124737261Y-101676522D01*
X124754587Y-101651778D01*
X124754587Y-101651777D01*
X124759554Y-101644684D01*
X124761795Y-101636322D01*
X124764258Y-101631040D01*
X124766257Y-101625546D01*
X124770588Y-101618045D01*
X124777337Y-101579771D01*
X124779202Y-101571360D01*
X124779862Y-101568895D01*
X124813176Y-101517574D01*
X124875493Y-101495500D01*
X124963834Y-101495500D01*
X124966135Y-101495282D01*
X124966145Y-101495282D01*
X124989361Y-101493087D01*
X124989362Y-101493087D01*
X124995369Y-101492519D01*
X125123184Y-101447634D01*
X125232150Y-101367150D01*
X125312634Y-101258184D01*
X125357519Y-101130369D01*
X125358087Y-101124360D01*
X125359380Y-101118468D01*
X125361090Y-101118843D01*
X125382220Y-101070025D01*
X125434887Y-101038883D01*
X125456476Y-101036500D01*
X126251466Y-101036500D01*
X126260095Y-101036877D01*
X126298807Y-101040264D01*
X126336350Y-101030204D01*
X126344784Y-101028334D01*
X126374517Y-101023092D01*
X126374519Y-101023091D01*
X126383045Y-101021588D01*
X126390544Y-101017258D01*
X126396029Y-101015262D01*
X126401316Y-101012796D01*
X126409684Y-101010554D01*
X126441511Y-100988268D01*
X126448795Y-100983627D01*
X126482455Y-100964194D01*
X126507436Y-100934423D01*
X126513270Y-100928056D01*
X126676831Y-100764496D01*
X126731347Y-100736719D01*
X126746834Y-100735500D01*
X129215544Y-100735500D01*
X129273735Y-100754407D01*
X129309699Y-100803907D01*
X129311801Y-100811360D01*
X129330828Y-100890612D01*
X129351931Y-100941560D01*
X129417076Y-101098834D01*
X129424223Y-101116089D01*
X129426255Y-101119404D01*
X129426257Y-101119409D01*
X129436463Y-101136063D01*
X129551741Y-101324179D01*
X129710241Y-101509759D01*
X129713208Y-101512293D01*
X129888465Y-101661976D01*
X129895821Y-101668259D01*
X129981043Y-101720483D01*
X130100591Y-101793743D01*
X130100596Y-101793745D01*
X130103911Y-101795777D01*
X130107502Y-101797264D01*
X130107507Y-101797267D01*
X130219207Y-101843534D01*
X130329388Y-101889172D01*
X130566698Y-101946146D01*
X130570563Y-101946450D01*
X130570568Y-101946451D01*
X130806125Y-101964989D01*
X130810000Y-101965294D01*
X130813875Y-101964989D01*
X131049432Y-101946451D01*
X131049437Y-101946450D01*
X131053302Y-101946146D01*
X131290612Y-101889172D01*
X131400793Y-101843534D01*
X131512493Y-101797267D01*
X131512498Y-101797264D01*
X131516089Y-101795777D01*
X131519404Y-101793745D01*
X131519409Y-101793743D01*
X131638957Y-101720483D01*
X131724179Y-101668259D01*
X131731536Y-101661976D01*
X131906792Y-101512293D01*
X131909759Y-101509759D01*
X132068259Y-101324179D01*
X132183537Y-101136063D01*
X132193743Y-101119409D01*
X132193745Y-101119404D01*
X132195777Y-101116089D01*
X132202925Y-101098834D01*
X132256900Y-100968523D01*
X132289172Y-100890612D01*
X132346146Y-100653302D01*
X132365294Y-100410000D01*
X132355760Y-100288855D01*
X132346451Y-100170568D01*
X132346450Y-100170563D01*
X132346146Y-100166698D01*
X132289172Y-99929388D01*
X132195777Y-99703911D01*
X132193745Y-99700596D01*
X132193743Y-99700591D01*
X132132018Y-99599866D01*
X132068259Y-99495821D01*
X132027104Y-99447634D01*
X131912293Y-99313208D01*
X131909759Y-99310241D01*
X131724179Y-99151741D01*
X131620134Y-99087982D01*
X131519409Y-99026257D01*
X131519404Y-99026255D01*
X131516089Y-99024223D01*
X131512498Y-99022736D01*
X131512493Y-99022733D01*
X131379217Y-98967529D01*
X131290612Y-98930828D01*
X131053302Y-98873854D01*
X131049437Y-98873550D01*
X131049432Y-98873549D01*
X130813875Y-98855011D01*
X130810000Y-98854706D01*
X130806125Y-98855011D01*
X130570568Y-98873549D01*
X130570563Y-98873550D01*
X130566698Y-98873854D01*
X130329388Y-98930828D01*
X130240783Y-98967529D01*
X130107507Y-99022733D01*
X130107502Y-99022736D01*
X130103911Y-99024223D01*
X130100596Y-99026255D01*
X130100591Y-99026257D01*
X129999866Y-99087982D01*
X129895821Y-99151741D01*
X129710241Y-99310241D01*
X129707707Y-99313208D01*
X129592897Y-99447634D01*
X129551741Y-99495821D01*
X129487982Y-99599866D01*
X129426257Y-99700591D01*
X129426255Y-99700596D01*
X129424223Y-99703911D01*
X129330828Y-99929388D01*
X129311807Y-100008614D01*
X129279839Y-100060780D01*
X129223311Y-100084195D01*
X129215544Y-100084500D01*
X126589526Y-100084500D01*
X126580898Y-100084123D01*
X126577576Y-100083832D01*
X126542193Y-100080737D01*
X126533830Y-100082978D01*
X126533827Y-100082978D01*
X126504656Y-100090794D01*
X126496229Y-100092663D01*
X126457955Y-100099412D01*
X126450454Y-100103743D01*
X126444960Y-100105742D01*
X126439678Y-100108205D01*
X126431316Y-100110446D01*
X126424223Y-100115413D01*
X126424222Y-100115413D01*
X126399478Y-100132739D01*
X126392219Y-100137364D01*
X126358545Y-100156806D01*
X126352975Y-100163444D01*
X126333569Y-100186571D01*
X126327735Y-100192938D01*
X126240858Y-100279816D01*
X126164171Y-100356503D01*
X126109654Y-100384281D01*
X126094167Y-100385500D01*
X125459280Y-100385500D01*
X125401089Y-100366593D01*
X125365125Y-100317093D01*
X125360500Y-100291759D01*
X125360500Y-100291166D01*
X125357519Y-100259631D01*
X125312634Y-100131816D01*
X125300519Y-100115413D01*
X125236550Y-100028807D01*
X125232150Y-100022850D01*
X125123184Y-99942366D01*
X124995369Y-99897481D01*
X124989362Y-99896913D01*
X124989361Y-99896913D01*
X124966145Y-99894718D01*
X124966135Y-99894718D01*
X124963834Y-99894500D01*
X123956166Y-99894500D01*
X123953865Y-99894718D01*
X123953855Y-99894718D01*
X123930639Y-99896913D01*
X123930638Y-99896913D01*
X123924631Y-99897481D01*
X123796816Y-99942366D01*
X123687850Y-100022850D01*
X123683450Y-100028807D01*
X123619482Y-100115413D01*
X123607366Y-100131816D01*
X123562481Y-100259631D01*
X123559500Y-100291166D01*
X123559500Y-101098834D01*
X123562481Y-101130369D01*
X123607366Y-101258184D01*
X123687850Y-101367150D01*
X123796816Y-101447634D01*
X123836107Y-101461432D01*
X123839698Y-101462693D01*
X123888337Y-101499813D01*
X123905869Y-101558433D01*
X123885692Y-101611903D01*
X123886806Y-101612546D01*
X123876426Y-101630525D01*
X123867373Y-101646205D01*
X123862732Y-101653489D01*
X123840446Y-101685316D01*
X123838204Y-101693684D01*
X123835738Y-101698971D01*
X123833742Y-101704456D01*
X123829412Y-101711955D01*
X123827909Y-101720481D01*
X123827908Y-101720483D01*
X123822666Y-101750216D01*
X123820796Y-101758650D01*
X123810736Y-101796193D01*
X123811899Y-101809481D01*
X123814123Y-101834905D01*
X123814500Y-101843534D01*
X123814500Y-101873854D01*
X123795593Y-101932045D01*
X123748302Y-101967262D01*
X123676816Y-101992366D01*
X123670865Y-101996761D01*
X123670864Y-101996762D01*
X123573807Y-102068450D01*
X123567850Y-102072850D01*
X123487366Y-102181816D01*
X123442481Y-102309631D01*
X123439500Y-102341166D01*
X123439500Y-103398834D01*
X123442481Y-103430369D01*
X123487366Y-103558184D01*
X123567850Y-103667150D01*
X123676816Y-103747634D01*
X123735802Y-103768348D01*
X123784441Y-103805468D01*
X123802000Y-103861756D01*
X123802000Y-105445500D01*
X123783093Y-105503691D01*
X123733593Y-105539655D01*
X123703000Y-105544500D01*
X123506782Y-105544500D01*
X123503199Y-105545028D01*
X123503192Y-105545028D01*
X123445501Y-105553521D01*
X123445499Y-105553522D01*
X123437888Y-105554642D01*
X123333145Y-105606068D01*
X123250707Y-105688650D01*
X123199464Y-105793482D01*
X123198355Y-105801084D01*
X123198354Y-105801087D01*
X123190024Y-105858192D01*
X123189500Y-105861782D01*
X123189500Y-106228218D01*
X118110500Y-106228218D01*
X118110500Y-105861782D01*
X118100358Y-105792888D01*
X118048932Y-105688145D01*
X117966350Y-105605707D01*
X117861518Y-105554464D01*
X117853916Y-105553355D01*
X117853913Y-105553354D01*
X117796763Y-105545017D01*
X117796761Y-105545017D01*
X117793218Y-105544500D01*
X117584500Y-105544500D01*
X117526309Y-105525593D01*
X117490345Y-105476093D01*
X117485500Y-105445500D01*
X117485500Y-105274557D01*
X118110001Y-105274557D01*
X118110528Y-105281754D01*
X118119006Y-105339355D01*
X118123517Y-105353873D01*
X118167873Y-105444216D01*
X118177270Y-105457342D01*
X118248152Y-105528101D01*
X118261294Y-105537474D01*
X118351722Y-105581676D01*
X118366231Y-105586161D01*
X118423278Y-105594483D01*
X118430405Y-105595000D01*
X118906820Y-105595000D01*
X118919505Y-105590878D01*
X118922500Y-105586757D01*
X118922500Y-105579319D01*
X119172500Y-105579319D01*
X119176622Y-105592004D01*
X119180743Y-105594999D01*
X119664557Y-105594999D01*
X119671754Y-105594472D01*
X119729355Y-105585994D01*
X119743873Y-105581483D01*
X119834216Y-105537127D01*
X119847342Y-105527730D01*
X119918101Y-105456848D01*
X119927474Y-105443706D01*
X119971676Y-105353278D01*
X119976161Y-105338769D01*
X119984483Y-105281722D01*
X119985000Y-105274595D01*
X119985000Y-105235680D01*
X119980878Y-105222995D01*
X119976757Y-105220000D01*
X119188180Y-105220000D01*
X119175495Y-105224122D01*
X119172500Y-105228243D01*
X119172500Y-105579319D01*
X118922500Y-105579319D01*
X118922500Y-105235680D01*
X118918378Y-105222995D01*
X118914257Y-105220000D01*
X118125681Y-105220000D01*
X118112996Y-105224122D01*
X118110001Y-105228243D01*
X118110001Y-105274557D01*
X117485500Y-105274557D01*
X117485500Y-104954320D01*
X118110000Y-104954320D01*
X118114122Y-104967005D01*
X118118243Y-104970000D01*
X118906820Y-104970000D01*
X118919505Y-104965878D01*
X118922500Y-104961757D01*
X118922500Y-104610681D01*
X118918378Y-104597996D01*
X118914257Y-104595001D01*
X118430443Y-104595001D01*
X118423246Y-104595528D01*
X118365645Y-104604006D01*
X118351127Y-104608517D01*
X118260784Y-104652873D01*
X118247658Y-104662270D01*
X118176899Y-104733152D01*
X118167526Y-104746294D01*
X118123324Y-104836722D01*
X118118839Y-104851231D01*
X118110517Y-104908278D01*
X118110000Y-104915405D01*
X118110000Y-104954320D01*
X117485500Y-104954320D01*
X117485500Y-103866146D01*
X117504407Y-103807955D01*
X117551698Y-103772738D01*
X117565643Y-103767841D01*
X117623184Y-103747634D01*
X117732150Y-103667150D01*
X117812634Y-103558184D01*
X117857519Y-103430369D01*
X117860500Y-103398834D01*
X118359500Y-103398834D01*
X118362481Y-103430369D01*
X118407366Y-103558184D01*
X118487850Y-103667150D01*
X118596816Y-103747634D01*
X118654357Y-103767841D01*
X118668302Y-103772738D01*
X118716941Y-103809858D01*
X118734500Y-103866146D01*
X118734500Y-103896466D01*
X118734123Y-103905095D01*
X118730736Y-103943807D01*
X118732978Y-103952174D01*
X118740796Y-103981349D01*
X118742666Y-103989783D01*
X118749412Y-104028045D01*
X118753742Y-104035544D01*
X118755738Y-104041029D01*
X118758204Y-104046316D01*
X118760446Y-104054684D01*
X118778650Y-104080681D01*
X118782732Y-104086511D01*
X118787371Y-104093792D01*
X118806806Y-104127455D01*
X118836576Y-104152435D01*
X118842944Y-104158270D01*
X119161280Y-104476607D01*
X119189057Y-104531123D01*
X119179486Y-104591555D01*
X119172500Y-104602954D01*
X119172500Y-104954320D01*
X119176622Y-104967005D01*
X119180743Y-104970000D01*
X119969319Y-104970000D01*
X119982004Y-104965878D01*
X119984999Y-104961757D01*
X119984999Y-104915443D01*
X119984472Y-104908246D01*
X119975994Y-104850645D01*
X119971483Y-104836127D01*
X119923521Y-104738439D01*
X119925779Y-104737330D01*
X119911022Y-104690803D01*
X119930339Y-104632747D01*
X119980091Y-104597132D01*
X120010020Y-104592500D01*
X121289385Y-104592500D01*
X121347576Y-104611407D01*
X121383540Y-104660907D01*
X121383540Y-104722093D01*
X121375295Y-104738449D01*
X121375707Y-104738650D01*
X121324464Y-104843482D01*
X121323355Y-104851084D01*
X121323354Y-104851087D01*
X121315024Y-104908192D01*
X121314500Y-104911782D01*
X121314500Y-105278218D01*
X121315028Y-105281801D01*
X121315028Y-105281808D01*
X121315498Y-105285000D01*
X121324642Y-105347112D01*
X121376068Y-105451855D01*
X121381859Y-105457636D01*
X121400348Y-105476093D01*
X121458650Y-105534293D01*
X121563482Y-105585536D01*
X121571084Y-105586645D01*
X121571087Y-105586646D01*
X121628237Y-105594983D01*
X121628239Y-105594983D01*
X121631782Y-105595500D01*
X122873218Y-105595500D01*
X122876801Y-105594972D01*
X122876808Y-105594972D01*
X122934499Y-105586479D01*
X122934501Y-105586478D01*
X122942112Y-105585358D01*
X122949612Y-105581676D01*
X123025330Y-105544500D01*
X123046855Y-105533932D01*
X123055180Y-105525593D01*
X123109303Y-105471375D01*
X123129293Y-105451350D01*
X123180536Y-105346518D01*
X123181645Y-105338916D01*
X123181646Y-105338913D01*
X123189983Y-105281763D01*
X123189984Y-105281754D01*
X123190500Y-105278218D01*
X123190500Y-104911782D01*
X123180358Y-104842888D01*
X123128932Y-104738145D01*
X123046350Y-104655707D01*
X122941518Y-104604464D01*
X122933916Y-104603355D01*
X122933913Y-104603354D01*
X122876763Y-104595017D01*
X122876761Y-104595017D01*
X122873218Y-104594500D01*
X122672682Y-104594500D01*
X122614491Y-104575593D01*
X122577055Y-104521120D01*
X122571706Y-104501155D01*
X122569837Y-104492728D01*
X122565888Y-104470333D01*
X122563088Y-104454455D01*
X122558757Y-104446954D01*
X122556758Y-104441460D01*
X122554295Y-104436178D01*
X122552054Y-104427816D01*
X122529759Y-104395975D01*
X122525136Y-104388719D01*
X122505694Y-104355045D01*
X122475929Y-104330069D01*
X122469562Y-104324235D01*
X122195275Y-104049949D01*
X122189439Y-104043581D01*
X122182690Y-104035538D01*
X122164455Y-104013806D01*
X122130792Y-103994371D01*
X122123520Y-103989738D01*
X122103321Y-103975594D01*
X122066500Y-103926731D01*
X122065433Y-103865555D01*
X122100528Y-103815435D01*
X122160107Y-103795500D01*
X122543834Y-103795500D01*
X122546135Y-103795282D01*
X122546145Y-103795282D01*
X122569361Y-103793087D01*
X122569362Y-103793087D01*
X122575369Y-103792519D01*
X122703184Y-103747634D01*
X122812150Y-103667150D01*
X122892634Y-103558184D01*
X122937519Y-103430369D01*
X122940500Y-103398834D01*
X122940500Y-102341166D01*
X122937519Y-102309631D01*
X122892634Y-102181816D01*
X122812150Y-102072850D01*
X122806193Y-102068450D01*
X122709136Y-101996762D01*
X122709135Y-101996761D01*
X122703184Y-101992366D01*
X122633791Y-101967997D01*
X122585152Y-101930876D01*
X122567621Y-101872256D01*
X122567971Y-101865960D01*
X122568508Y-101859820D01*
X122569263Y-101851193D01*
X122567022Y-101842830D01*
X122567022Y-101842827D01*
X122559206Y-101813656D01*
X122557337Y-101805228D01*
X122554268Y-101787826D01*
X122550588Y-101766955D01*
X122546257Y-101759454D01*
X122544258Y-101753960D01*
X122541795Y-101748678D01*
X122539554Y-101740316D01*
X122517259Y-101708475D01*
X122512636Y-101701219D01*
X122493194Y-101667545D01*
X122468081Y-101646473D01*
X122435658Y-101594586D01*
X122439926Y-101533550D01*
X122479254Y-101486679D01*
X122498915Y-101477227D01*
X122513123Y-101472238D01*
X122583184Y-101447634D01*
X122692150Y-101367150D01*
X122772634Y-101258184D01*
X122817519Y-101130369D01*
X122820500Y-101098834D01*
X122820500Y-100291166D01*
X122817519Y-100259631D01*
X122772634Y-100131816D01*
X122760519Y-100115413D01*
X122696550Y-100028807D01*
X122692150Y-100022850D01*
X122583184Y-99942366D01*
X122455369Y-99897481D01*
X122449362Y-99896913D01*
X122449361Y-99896913D01*
X122426145Y-99894718D01*
X122426135Y-99894718D01*
X122423834Y-99894500D01*
X121416166Y-99894500D01*
X121413865Y-99894718D01*
X121413855Y-99894718D01*
X121390639Y-99896913D01*
X121390638Y-99896913D01*
X121384631Y-99897481D01*
X121256816Y-99942366D01*
X121147850Y-100022850D01*
X121143450Y-100028807D01*
X121079482Y-100115413D01*
X121067366Y-100131816D01*
X121022481Y-100259631D01*
X121019500Y-100291166D01*
X121019500Y-101098834D01*
X121022481Y-101130369D01*
X121067366Y-101258184D01*
X121147850Y-101367150D01*
X121256816Y-101447634D01*
X121384631Y-101492519D01*
X121390638Y-101493087D01*
X121390639Y-101493087D01*
X121413855Y-101495282D01*
X121413865Y-101495282D01*
X121416166Y-101495500D01*
X121493366Y-101495500D01*
X121551557Y-101514407D01*
X121587521Y-101563907D01*
X121591292Y-101582447D01*
X121590736Y-101588807D01*
X121592978Y-101597173D01*
X121600796Y-101626349D01*
X121602666Y-101634783D01*
X121609412Y-101673045D01*
X121613742Y-101680544D01*
X121615738Y-101686029D01*
X121618204Y-101691316D01*
X121620446Y-101699684D01*
X121632890Y-101717455D01*
X121642732Y-101731511D01*
X121647371Y-101738792D01*
X121666806Y-101772455D01*
X121692176Y-101793743D01*
X121696570Y-101797430D01*
X121702938Y-101803264D01*
X121761775Y-101862101D01*
X121789552Y-101916618D01*
X121779981Y-101977050D01*
X121750590Y-102011737D01*
X121667850Y-102072850D01*
X121587366Y-102181816D01*
X121542481Y-102309631D01*
X121539500Y-102341166D01*
X121539500Y-102445500D01*
X121520593Y-102503691D01*
X121471093Y-102539655D01*
X121440500Y-102544500D01*
X120983970Y-102544500D01*
X120925779Y-102525593D01*
X120905428Y-102505767D01*
X120860236Y-102446871D01*
X120856282Y-102441718D01*
X120730841Y-102345464D01*
X120584762Y-102284956D01*
X120428000Y-102264318D01*
X120271238Y-102284956D01*
X120125159Y-102345464D01*
X119999718Y-102441718D01*
X119995764Y-102446871D01*
X119938042Y-102522096D01*
X119887618Y-102556752D01*
X119826453Y-102555151D01*
X119777912Y-102517903D01*
X119760500Y-102461829D01*
X119760500Y-102341166D01*
X119757519Y-102309631D01*
X119712634Y-102181816D01*
X119632150Y-102072850D01*
X119523184Y-101992366D01*
X119523999Y-101991263D01*
X119486952Y-101953035D01*
X119478330Y-101892460D01*
X119505852Y-101839475D01*
X119597069Y-101748258D01*
X119603424Y-101742435D01*
X119633194Y-101717455D01*
X119652636Y-101683781D01*
X119657261Y-101676522D01*
X119674587Y-101651778D01*
X119674587Y-101651777D01*
X119679554Y-101644684D01*
X119681795Y-101636322D01*
X119684258Y-101631040D01*
X119686257Y-101625546D01*
X119690588Y-101618045D01*
X119697337Y-101579771D01*
X119699202Y-101571360D01*
X119699862Y-101568895D01*
X119733176Y-101517574D01*
X119795493Y-101495500D01*
X119883834Y-101495500D01*
X119886135Y-101495282D01*
X119886145Y-101495282D01*
X119909361Y-101493087D01*
X119909362Y-101493087D01*
X119915369Y-101492519D01*
X120043184Y-101447634D01*
X120152150Y-101367150D01*
X120232634Y-101258184D01*
X120277519Y-101130369D01*
X120280500Y-101098834D01*
X120280500Y-100291166D01*
X120277519Y-100259631D01*
X120232634Y-100131816D01*
X120220519Y-100115413D01*
X120156550Y-100028807D01*
X120152150Y-100022850D01*
X120043184Y-99942366D01*
X119915369Y-99897481D01*
X119909362Y-99896913D01*
X119909361Y-99896913D01*
X119886145Y-99894718D01*
X119886135Y-99894718D01*
X119883834Y-99894500D01*
X118876166Y-99894500D01*
X118873865Y-99894718D01*
X118873855Y-99894718D01*
X118850639Y-99896913D01*
X118850638Y-99896913D01*
X118844631Y-99897481D01*
X118716816Y-99942366D01*
X118607850Y-100022850D01*
X118603450Y-100028807D01*
X118539482Y-100115413D01*
X118527366Y-100131816D01*
X118482481Y-100259631D01*
X118479500Y-100291166D01*
X118479500Y-101098834D01*
X118482481Y-101130369D01*
X118527366Y-101258184D01*
X118607850Y-101367150D01*
X118716816Y-101447634D01*
X118756107Y-101461432D01*
X118759698Y-101462693D01*
X118808337Y-101499813D01*
X118825869Y-101558433D01*
X118805692Y-101611903D01*
X118806806Y-101612546D01*
X118796426Y-101630525D01*
X118787373Y-101646205D01*
X118782732Y-101653489D01*
X118760446Y-101685316D01*
X118758204Y-101693684D01*
X118755738Y-101698971D01*
X118753742Y-101704456D01*
X118749412Y-101711955D01*
X118747909Y-101720481D01*
X118747908Y-101720483D01*
X118742666Y-101750216D01*
X118740796Y-101758650D01*
X118730736Y-101796193D01*
X118731899Y-101809481D01*
X118734123Y-101834905D01*
X118734500Y-101843534D01*
X118734500Y-101873854D01*
X118715593Y-101932045D01*
X118668302Y-101967262D01*
X118596816Y-101992366D01*
X118590865Y-101996761D01*
X118590864Y-101996762D01*
X118493807Y-102068450D01*
X118487850Y-102072850D01*
X118407366Y-102181816D01*
X118362481Y-102309631D01*
X118359500Y-102341166D01*
X118359500Y-103398834D01*
X117860500Y-103398834D01*
X117860500Y-102341166D01*
X117857519Y-102309631D01*
X117812634Y-102181816D01*
X117732150Y-102072850D01*
X117726193Y-102068450D01*
X117629136Y-101996762D01*
X117629135Y-101996761D01*
X117623184Y-101992366D01*
X117553791Y-101967997D01*
X117505152Y-101930876D01*
X117487621Y-101872256D01*
X117487971Y-101865960D01*
X117488508Y-101859820D01*
X117489263Y-101851193D01*
X117487022Y-101842830D01*
X117487022Y-101842827D01*
X117479206Y-101813656D01*
X117477337Y-101805228D01*
X117474268Y-101787826D01*
X117470588Y-101766955D01*
X117466257Y-101759454D01*
X117464258Y-101753960D01*
X117461795Y-101748678D01*
X117459554Y-101740316D01*
X117437259Y-101708475D01*
X117432636Y-101701219D01*
X117413194Y-101667545D01*
X117388081Y-101646473D01*
X117355658Y-101594586D01*
X117359926Y-101533550D01*
X117399254Y-101486679D01*
X117418915Y-101477227D01*
X117433123Y-101472238D01*
X117503184Y-101447634D01*
X117612150Y-101367150D01*
X117692634Y-101258184D01*
X117737519Y-101130369D01*
X117740500Y-101098834D01*
X117740500Y-100291166D01*
X117737519Y-100259631D01*
X117692634Y-100131816D01*
X117680519Y-100115413D01*
X117616550Y-100028807D01*
X117612150Y-100022850D01*
X117503184Y-99942366D01*
X117375369Y-99897481D01*
X117369362Y-99896913D01*
X117369361Y-99896913D01*
X117346145Y-99894718D01*
X117346135Y-99894718D01*
X117343834Y-99894500D01*
X116336166Y-99894500D01*
X116333865Y-99894718D01*
X116333855Y-99894718D01*
X116310639Y-99896913D01*
X116310638Y-99896913D01*
X116304631Y-99897481D01*
X116176816Y-99942366D01*
X116067850Y-100022850D01*
X116063450Y-100028807D01*
X115999482Y-100115413D01*
X115987366Y-100131816D01*
X115942481Y-100259631D01*
X115941913Y-100265638D01*
X115941913Y-100265639D01*
X115940573Y-100279816D01*
X115916273Y-100335969D01*
X115863609Y-100367116D01*
X115842012Y-100369500D01*
X115015834Y-100369500D01*
X114957643Y-100350593D01*
X114945830Y-100340504D01*
X114845269Y-100239943D01*
X114839434Y-100233575D01*
X114814455Y-100203806D01*
X114780792Y-100184371D01*
X114773511Y-100179732D01*
X114771056Y-100178013D01*
X114741684Y-100157446D01*
X114733316Y-100155204D01*
X114728029Y-100152738D01*
X114722544Y-100150742D01*
X114715045Y-100146412D01*
X114706519Y-100144909D01*
X114706517Y-100144908D01*
X114676784Y-100139666D01*
X114668349Y-100137796D01*
X114639174Y-100129978D01*
X114630807Y-100127736D01*
X114622178Y-100128491D01*
X114592095Y-100131123D01*
X114583466Y-100131500D01*
X111977000Y-100131500D01*
X111918809Y-100112593D01*
X111882845Y-100063093D01*
X111878000Y-100032500D01*
X111878000Y-99097752D01*
X111872779Y-99071505D01*
X111868270Y-99048834D01*
X111868269Y-99048832D01*
X111866367Y-99039269D01*
X111822052Y-98972948D01*
X111755731Y-98928633D01*
X111746168Y-98926731D01*
X111746166Y-98926730D01*
X111723495Y-98922221D01*
X111697248Y-98917000D01*
X108957752Y-98917000D01*
X108931505Y-98922221D01*
X108908834Y-98926730D01*
X108908832Y-98926731D01*
X108899269Y-98928633D01*
X108832948Y-98972948D01*
X108788633Y-99039269D01*
X108786731Y-99048832D01*
X108786730Y-99048834D01*
X108782221Y-99071505D01*
X108777000Y-99097752D01*
X108777000Y-101837248D01*
X104380500Y-101837248D01*
X104380500Y-96411443D01*
X111380001Y-96411443D01*
X111380220Y-96416086D01*
X111382411Y-96439269D01*
X111384976Y-96450965D01*
X111425362Y-96565966D01*
X111432209Y-96578899D01*
X111503808Y-96675835D01*
X111514165Y-96686192D01*
X111611101Y-96757791D01*
X111624034Y-96764638D01*
X111739031Y-96805022D01*
X111750734Y-96807590D01*
X111773918Y-96809782D01*
X111778554Y-96810000D01*
X111939320Y-96810000D01*
X111952005Y-96805878D01*
X111955000Y-96801757D01*
X111955000Y-96794319D01*
X112205000Y-96794319D01*
X112209122Y-96807004D01*
X112213243Y-96809999D01*
X112381443Y-96809999D01*
X112386086Y-96809780D01*
X112409269Y-96807589D01*
X112420965Y-96805024D01*
X112535966Y-96764638D01*
X112548899Y-96757791D01*
X112645835Y-96686192D01*
X112656192Y-96675835D01*
X112727791Y-96578899D01*
X112734638Y-96565966D01*
X112775022Y-96450969D01*
X112777590Y-96439266D01*
X112779782Y-96416082D01*
X112779888Y-96413834D01*
X113279500Y-96413834D01*
X113282481Y-96445369D01*
X113327366Y-96573184D01*
X113331761Y-96579135D01*
X113331762Y-96579136D01*
X113403186Y-96675835D01*
X113407850Y-96682150D01*
X113413807Y-96686550D01*
X113490203Y-96742977D01*
X113516816Y-96762634D01*
X113574357Y-96782841D01*
X113588302Y-96787738D01*
X113636941Y-96824858D01*
X113654500Y-96881146D01*
X113654500Y-98181466D01*
X113654123Y-98190095D01*
X113650736Y-98228807D01*
X113652978Y-98237174D01*
X113660796Y-98266349D01*
X113662666Y-98274784D01*
X113667305Y-98301093D01*
X113669412Y-98313045D01*
X113673742Y-98320544D01*
X113675738Y-98326029D01*
X113678204Y-98331316D01*
X113680446Y-98339684D01*
X113698729Y-98365794D01*
X113702732Y-98371511D01*
X113707371Y-98378792D01*
X113726806Y-98412455D01*
X113741075Y-98424428D01*
X113756571Y-98437431D01*
X113762939Y-98443265D01*
X114231731Y-98912057D01*
X114237565Y-98918424D01*
X114262545Y-98948194D01*
X114296035Y-98967529D01*
X114296205Y-98967627D01*
X114303489Y-98972268D01*
X114335316Y-98994554D01*
X114343684Y-98996796D01*
X114348971Y-98999262D01*
X114354456Y-99001258D01*
X114361955Y-99005588D01*
X114370481Y-99007091D01*
X114370483Y-99007092D01*
X114400216Y-99012334D01*
X114408650Y-99014204D01*
X114446193Y-99024264D01*
X114484908Y-99020877D01*
X114493537Y-99020500D01*
X115842012Y-99020500D01*
X115900203Y-99039407D01*
X115936167Y-99088907D01*
X115940573Y-99110183D01*
X115942481Y-99130369D01*
X115987366Y-99258184D01*
X115991761Y-99264135D01*
X115991762Y-99264136D01*
X116063450Y-99361193D01*
X116067850Y-99367150D01*
X116176816Y-99447634D01*
X116304631Y-99492519D01*
X116310638Y-99493087D01*
X116310639Y-99493087D01*
X116333855Y-99495282D01*
X116333865Y-99495282D01*
X116336166Y-99495500D01*
X117343834Y-99495500D01*
X117346135Y-99495282D01*
X117346145Y-99495282D01*
X117369361Y-99493087D01*
X117369362Y-99493087D01*
X117375369Y-99492519D01*
X117503184Y-99447634D01*
X117612150Y-99367150D01*
X117616550Y-99361193D01*
X117688238Y-99264136D01*
X117688239Y-99264135D01*
X117692634Y-99258184D01*
X117737519Y-99130369D01*
X117739427Y-99110184D01*
X117763727Y-99054031D01*
X117816391Y-99022884D01*
X117837988Y-99020500D01*
X118382012Y-99020500D01*
X118440203Y-99039407D01*
X118476167Y-99088907D01*
X118480573Y-99110183D01*
X118482481Y-99130369D01*
X118527366Y-99258184D01*
X118531761Y-99264135D01*
X118531762Y-99264136D01*
X118603450Y-99361193D01*
X118607850Y-99367150D01*
X118716816Y-99447634D01*
X118844631Y-99492519D01*
X118850638Y-99493087D01*
X118850639Y-99493087D01*
X118873855Y-99495282D01*
X118873865Y-99495282D01*
X118876166Y-99495500D01*
X119883834Y-99495500D01*
X119886135Y-99495282D01*
X119886145Y-99495282D01*
X119909361Y-99493087D01*
X119909362Y-99493087D01*
X119915369Y-99492519D01*
X120043184Y-99447634D01*
X120152150Y-99367150D01*
X120156550Y-99361193D01*
X120228238Y-99264136D01*
X120228239Y-99264135D01*
X120232634Y-99258184D01*
X120277519Y-99130369D01*
X120279427Y-99110184D01*
X120303727Y-99054031D01*
X120356391Y-99022884D01*
X120377988Y-99020500D01*
X120922012Y-99020500D01*
X120980203Y-99039407D01*
X121016167Y-99088907D01*
X121020573Y-99110183D01*
X121022481Y-99130369D01*
X121067366Y-99258184D01*
X121071761Y-99264135D01*
X121071762Y-99264136D01*
X121143450Y-99361193D01*
X121147850Y-99367150D01*
X121256816Y-99447634D01*
X121384631Y-99492519D01*
X121390638Y-99493087D01*
X121390639Y-99493087D01*
X121413855Y-99495282D01*
X121413865Y-99495282D01*
X121416166Y-99495500D01*
X122423834Y-99495500D01*
X122426135Y-99495282D01*
X122426145Y-99495282D01*
X122449361Y-99493087D01*
X122449362Y-99493087D01*
X122455369Y-99492519D01*
X122583184Y-99447634D01*
X122692150Y-99367150D01*
X122696550Y-99361193D01*
X122768238Y-99264136D01*
X122768239Y-99264135D01*
X122772634Y-99258184D01*
X122817519Y-99130369D01*
X122819427Y-99110184D01*
X122843727Y-99054031D01*
X122896391Y-99022884D01*
X122917988Y-99020500D01*
X123462012Y-99020500D01*
X123520203Y-99039407D01*
X123556167Y-99088907D01*
X123560573Y-99110183D01*
X123562481Y-99130369D01*
X123607366Y-99258184D01*
X123611761Y-99264135D01*
X123611762Y-99264136D01*
X123683450Y-99361193D01*
X123687850Y-99367150D01*
X123796816Y-99447634D01*
X123924631Y-99492519D01*
X123930638Y-99493087D01*
X123930639Y-99493087D01*
X123953855Y-99495282D01*
X123953865Y-99495282D01*
X123956166Y-99495500D01*
X124963834Y-99495500D01*
X124966135Y-99495282D01*
X124966145Y-99495282D01*
X124989361Y-99493087D01*
X124989362Y-99493087D01*
X124995369Y-99492519D01*
X125123184Y-99447634D01*
X125232150Y-99367150D01*
X125236550Y-99361193D01*
X125308238Y-99264136D01*
X125308239Y-99264135D01*
X125312634Y-99258184D01*
X125357519Y-99130369D01*
X125359427Y-99110184D01*
X125383727Y-99054031D01*
X125436391Y-99022884D01*
X125457988Y-99020500D01*
X126743466Y-99020500D01*
X126752095Y-99020877D01*
X126790807Y-99024264D01*
X126828350Y-99014204D01*
X126836784Y-99012334D01*
X126866517Y-99007092D01*
X126866519Y-99007091D01*
X126875045Y-99005588D01*
X126882544Y-99001258D01*
X126888029Y-98999262D01*
X126893316Y-98996796D01*
X126901684Y-98994554D01*
X126933511Y-98972268D01*
X126940795Y-98967627D01*
X126940965Y-98967529D01*
X126974455Y-98948194D01*
X126999436Y-98918423D01*
X127005270Y-98912056D01*
X127487064Y-98430263D01*
X127493417Y-98424441D01*
X127523194Y-98399455D01*
X127542629Y-98365792D01*
X127547269Y-98358509D01*
X127555483Y-98346779D01*
X127569553Y-98326684D01*
X127571795Y-98318318D01*
X127574262Y-98313027D01*
X127576255Y-98307550D01*
X127580588Y-98300045D01*
X127586529Y-98266349D01*
X127587337Y-98261769D01*
X127589206Y-98253337D01*
X127595779Y-98228807D01*
X127599263Y-98215807D01*
X127595877Y-98177103D01*
X127595500Y-98168475D01*
X127595500Y-97517988D01*
X127614407Y-97459797D01*
X127663907Y-97423833D01*
X127685183Y-97419427D01*
X127693280Y-97418662D01*
X127699361Y-97418087D01*
X127699362Y-97418087D01*
X127705369Y-97417519D01*
X127833184Y-97372634D01*
X127942150Y-97292150D01*
X128022634Y-97183184D01*
X128067519Y-97055369D01*
X128070500Y-97023834D01*
X128469500Y-97023834D01*
X128472481Y-97055369D01*
X128517366Y-97183184D01*
X128597850Y-97292150D01*
X128706816Y-97372634D01*
X128834631Y-97417519D01*
X128840638Y-97418087D01*
X128840639Y-97418087D01*
X128863855Y-97420282D01*
X128863865Y-97420282D01*
X128866166Y-97420500D01*
X129673834Y-97420500D01*
X129676135Y-97420282D01*
X129676145Y-97420282D01*
X129699361Y-97418087D01*
X129699362Y-97418087D01*
X129705369Y-97417519D01*
X129833184Y-97372634D01*
X129942150Y-97292150D01*
X130022634Y-97183184D01*
X130067519Y-97055369D01*
X130070500Y-97023834D01*
X130070500Y-96612000D01*
X130089407Y-96553809D01*
X130138907Y-96517845D01*
X130169500Y-96513000D01*
X130476424Y-96513000D01*
X130534615Y-96531907D01*
X130569832Y-96579198D01*
X130591702Y-96641476D01*
X130671070Y-96748930D01*
X130677023Y-96753327D01*
X130753750Y-96809999D01*
X130778524Y-96828298D01*
X130785502Y-96830748D01*
X130785503Y-96830749D01*
X130861730Y-96857517D01*
X130904566Y-96872560D01*
X130910574Y-96873128D01*
X130933356Y-96875282D01*
X130933366Y-96875282D01*
X130935667Y-96875500D01*
X131444781Y-96875500D01*
X131954332Y-96875499D01*
X131985434Y-96872560D01*
X131991121Y-96870563D01*
X131991125Y-96870562D01*
X132104497Y-96830749D01*
X132104498Y-96830748D01*
X132111476Y-96828298D01*
X132136251Y-96809999D01*
X132212977Y-96753327D01*
X132218930Y-96748930D01*
X132298298Y-96641476D01*
X132342560Y-96515434D01*
X132345500Y-96484333D01*
X132345499Y-95890668D01*
X132342560Y-95859566D01*
X132340563Y-95853879D01*
X132340562Y-95853875D01*
X132300749Y-95740503D01*
X132300748Y-95740502D01*
X132298298Y-95733524D01*
X132218930Y-95626070D01*
X132111476Y-95546702D01*
X132104498Y-95544252D01*
X132104497Y-95544251D01*
X131991129Y-95504440D01*
X131991130Y-95504440D01*
X131985434Y-95502440D01*
X131979426Y-95501872D01*
X131956644Y-95499718D01*
X131956634Y-95499718D01*
X131954333Y-95499500D01*
X131445219Y-95499500D01*
X130935668Y-95499501D01*
X130904566Y-95502440D01*
X130898879Y-95504437D01*
X130898875Y-95504438D01*
X130785503Y-95544251D01*
X130785502Y-95544252D01*
X130778524Y-95546702D01*
X130671070Y-95626070D01*
X130591702Y-95733524D01*
X130589252Y-95740502D01*
X130589251Y-95740503D01*
X130569832Y-95795802D01*
X130532712Y-95844441D01*
X130476424Y-95862000D01*
X130076417Y-95862000D01*
X130018226Y-95843093D01*
X129996784Y-95821818D01*
X129946550Y-95753807D01*
X129942150Y-95747850D01*
X129833184Y-95667366D01*
X129705369Y-95622481D01*
X129699362Y-95621913D01*
X129699361Y-95621913D01*
X129676145Y-95619718D01*
X129676135Y-95619718D01*
X129673834Y-95619500D01*
X128866166Y-95619500D01*
X128863865Y-95619718D01*
X128863855Y-95619718D01*
X128840639Y-95621913D01*
X128840638Y-95621913D01*
X128834631Y-95622481D01*
X128706816Y-95667366D01*
X128597850Y-95747850D01*
X128517366Y-95856816D01*
X128472481Y-95984631D01*
X128471913Y-95990638D01*
X128471913Y-95990639D01*
X128469800Y-96012995D01*
X128469500Y-96016166D01*
X128469500Y-97023834D01*
X128070500Y-97023834D01*
X128070500Y-96016166D01*
X128070201Y-96012995D01*
X128068087Y-95990639D01*
X128068087Y-95990638D01*
X128067519Y-95984631D01*
X128022634Y-95856816D01*
X127942150Y-95747850D01*
X127833184Y-95667366D01*
X127705369Y-95622481D01*
X127699362Y-95621913D01*
X127699361Y-95621913D01*
X127676145Y-95619718D01*
X127676135Y-95619718D01*
X127673834Y-95619500D01*
X126866166Y-95619500D01*
X126863865Y-95619718D01*
X126863855Y-95619718D01*
X126840639Y-95621913D01*
X126840638Y-95621913D01*
X126834631Y-95622481D01*
X126706816Y-95667366D01*
X126597850Y-95747850D01*
X126517366Y-95856816D01*
X126472481Y-95984631D01*
X126471913Y-95990638D01*
X126471913Y-95990639D01*
X126469800Y-96012995D01*
X126469500Y-96016166D01*
X126469500Y-97023834D01*
X126472481Y-97055369D01*
X126517366Y-97183184D01*
X126597850Y-97292150D01*
X126706816Y-97372634D01*
X126834631Y-97417519D01*
X126840638Y-97418087D01*
X126840639Y-97418087D01*
X126846720Y-97418662D01*
X126854816Y-97419427D01*
X126910969Y-97443727D01*
X126942116Y-97496391D01*
X126944500Y-97517988D01*
X126944500Y-98011166D01*
X126925593Y-98069357D01*
X126915504Y-98081169D01*
X126656171Y-98340503D01*
X126601654Y-98368281D01*
X126586167Y-98369500D01*
X125457988Y-98369500D01*
X125399797Y-98350593D01*
X125363833Y-98301093D01*
X125359427Y-98279816D01*
X125358087Y-98265639D01*
X125358087Y-98265638D01*
X125357519Y-98259631D01*
X125312634Y-98131816D01*
X125253809Y-98052173D01*
X125236550Y-98028807D01*
X125232150Y-98022850D01*
X125123184Y-97942366D01*
X124995369Y-97897481D01*
X124989362Y-97896913D01*
X124989361Y-97896913D01*
X124966145Y-97894718D01*
X124966135Y-97894718D01*
X124963834Y-97894500D01*
X123956166Y-97894500D01*
X123953865Y-97894718D01*
X123953855Y-97894718D01*
X123930639Y-97896913D01*
X123930638Y-97896913D01*
X123924631Y-97897481D01*
X123796816Y-97942366D01*
X123687850Y-98022850D01*
X123683450Y-98028807D01*
X123666192Y-98052173D01*
X123607366Y-98131816D01*
X123562481Y-98259631D01*
X123561913Y-98265638D01*
X123561913Y-98265639D01*
X123560573Y-98279816D01*
X123536273Y-98335969D01*
X123483609Y-98367116D01*
X123462012Y-98369500D01*
X122917988Y-98369500D01*
X122859797Y-98350593D01*
X122823833Y-98301093D01*
X122819427Y-98279816D01*
X122818087Y-98265639D01*
X122818087Y-98265638D01*
X122817519Y-98259631D01*
X122772634Y-98131816D01*
X122713809Y-98052173D01*
X122696550Y-98028807D01*
X122692150Y-98022850D01*
X122583184Y-97942366D01*
X122455369Y-97897481D01*
X122449362Y-97896913D01*
X122449361Y-97896913D01*
X122426145Y-97894718D01*
X122426135Y-97894718D01*
X122423834Y-97894500D01*
X121416166Y-97894500D01*
X121413865Y-97894718D01*
X121413855Y-97894718D01*
X121390639Y-97896913D01*
X121390638Y-97896913D01*
X121384631Y-97897481D01*
X121256816Y-97942366D01*
X121147850Y-98022850D01*
X121143450Y-98028807D01*
X121126192Y-98052173D01*
X121067366Y-98131816D01*
X121022481Y-98259631D01*
X121021913Y-98265638D01*
X121021913Y-98265639D01*
X121020573Y-98279816D01*
X120996273Y-98335969D01*
X120943609Y-98367116D01*
X120922012Y-98369500D01*
X120377988Y-98369500D01*
X120319797Y-98350593D01*
X120283833Y-98301093D01*
X120279427Y-98279816D01*
X120278087Y-98265639D01*
X120278087Y-98265638D01*
X120277519Y-98259631D01*
X120232634Y-98131816D01*
X120173809Y-98052173D01*
X120156550Y-98028807D01*
X120152150Y-98022850D01*
X120043184Y-97942366D01*
X119915369Y-97897481D01*
X119909362Y-97896913D01*
X119909361Y-97896913D01*
X119886145Y-97894718D01*
X119886135Y-97894718D01*
X119883834Y-97894500D01*
X118876166Y-97894500D01*
X118873865Y-97894718D01*
X118873855Y-97894718D01*
X118850639Y-97896913D01*
X118850638Y-97896913D01*
X118844631Y-97897481D01*
X118716816Y-97942366D01*
X118607850Y-98022850D01*
X118603450Y-98028807D01*
X118586192Y-98052173D01*
X118527366Y-98131816D01*
X118482481Y-98259631D01*
X118481913Y-98265638D01*
X118481913Y-98265639D01*
X118480573Y-98279816D01*
X118456273Y-98335969D01*
X118403609Y-98367116D01*
X118382012Y-98369500D01*
X117837988Y-98369500D01*
X117779797Y-98350593D01*
X117743833Y-98301093D01*
X117739427Y-98279816D01*
X117738087Y-98265639D01*
X117738087Y-98265638D01*
X117737519Y-98259631D01*
X117692634Y-98131816D01*
X117633809Y-98052173D01*
X117616550Y-98028807D01*
X117612150Y-98022850D01*
X117503184Y-97942366D01*
X117375369Y-97897481D01*
X117369362Y-97896913D01*
X117369361Y-97896913D01*
X117346145Y-97894718D01*
X117346135Y-97894718D01*
X117343834Y-97894500D01*
X116336166Y-97894500D01*
X116333865Y-97894718D01*
X116333855Y-97894718D01*
X116310639Y-97896913D01*
X116310638Y-97896913D01*
X116304631Y-97897481D01*
X116176816Y-97942366D01*
X116067850Y-98022850D01*
X116063450Y-98028807D01*
X116046192Y-98052173D01*
X115987366Y-98131816D01*
X115942481Y-98259631D01*
X115941913Y-98265638D01*
X115941913Y-98265639D01*
X115940573Y-98279816D01*
X115916273Y-98335969D01*
X115863609Y-98367116D01*
X115842012Y-98369500D01*
X114650834Y-98369500D01*
X114592643Y-98350593D01*
X114580830Y-98340504D01*
X114334496Y-98094170D01*
X114306719Y-98039653D01*
X114305500Y-98024166D01*
X114305500Y-96881146D01*
X114324407Y-96822955D01*
X114371698Y-96787738D01*
X114385643Y-96782841D01*
X114443184Y-96762634D01*
X114469798Y-96742977D01*
X114546193Y-96686550D01*
X114552150Y-96682150D01*
X114556814Y-96675835D01*
X114628238Y-96579136D01*
X114628239Y-96579135D01*
X114632634Y-96573184D01*
X114677519Y-96445369D01*
X114680500Y-96413834D01*
X114680500Y-95356166D01*
X114677519Y-95324631D01*
X114632634Y-95196816D01*
X114552150Y-95087850D01*
X114546193Y-95083450D01*
X114449136Y-95011762D01*
X114449135Y-95011761D01*
X114443184Y-95007366D01*
X114371698Y-94982262D01*
X114323059Y-94945142D01*
X114305500Y-94888854D01*
X114305500Y-94615000D01*
X126680318Y-94615000D01*
X126700956Y-94771762D01*
X126761464Y-94917841D01*
X126857718Y-95043282D01*
X126983159Y-95139536D01*
X127129238Y-95200044D01*
X127286000Y-95220682D01*
X127442762Y-95200044D01*
X127588841Y-95139536D01*
X127714282Y-95043282D01*
X127810536Y-94917841D01*
X127871044Y-94771762D01*
X127891682Y-94615000D01*
X127871044Y-94458238D01*
X127810536Y-94312159D01*
X127714282Y-94186718D01*
X127589233Y-94090765D01*
X127554577Y-94040341D01*
X127550500Y-94012223D01*
X127550500Y-93960606D01*
X127569407Y-93902415D01*
X127582419Y-93889495D01*
X127581855Y-93888932D01*
X127599248Y-93871509D01*
X127664293Y-93806350D01*
X127715536Y-93701518D01*
X127716645Y-93693916D01*
X127716646Y-93693913D01*
X127724983Y-93636763D01*
X127724984Y-93636754D01*
X127725500Y-93633218D01*
X127725500Y-93629557D01*
X128625001Y-93629557D01*
X128625528Y-93636754D01*
X128634006Y-93694355D01*
X128638517Y-93708873D01*
X128682873Y-93799216D01*
X128692270Y-93812342D01*
X128763152Y-93883101D01*
X128776294Y-93892474D01*
X128866722Y-93936676D01*
X128881231Y-93941161D01*
X128938278Y-93949483D01*
X128945405Y-93950000D01*
X128984320Y-93950000D01*
X128997005Y-93945878D01*
X129000000Y-93941757D01*
X129000000Y-93934319D01*
X129250000Y-93934319D01*
X129254122Y-93947004D01*
X129258243Y-93949999D01*
X129304557Y-93949999D01*
X129311754Y-93949472D01*
X129369355Y-93940994D01*
X129383873Y-93936483D01*
X129474216Y-93892127D01*
X129487342Y-93882730D01*
X129558101Y-93811848D01*
X129567474Y-93798706D01*
X129611676Y-93708278D01*
X129616161Y-93693769D01*
X129624483Y-93636722D01*
X129625000Y-93629595D01*
X129625000Y-93153180D01*
X129620878Y-93140495D01*
X129616757Y-93137500D01*
X129265680Y-93137500D01*
X129252995Y-93141622D01*
X129250000Y-93145743D01*
X129250000Y-93934319D01*
X129000000Y-93934319D01*
X129000000Y-93153180D01*
X128995878Y-93140495D01*
X128991757Y-93137500D01*
X128640681Y-93137500D01*
X128627996Y-93141622D01*
X128625001Y-93145743D01*
X128625001Y-93629557D01*
X127725500Y-93629557D01*
X127725500Y-92871820D01*
X128625000Y-92871820D01*
X128629122Y-92884505D01*
X128633243Y-92887500D01*
X128984320Y-92887500D01*
X128997005Y-92883378D01*
X129000000Y-92879257D01*
X129000000Y-92871820D01*
X129250000Y-92871820D01*
X129254122Y-92884505D01*
X129258243Y-92887500D01*
X129609319Y-92887500D01*
X129622004Y-92883378D01*
X129624999Y-92879257D01*
X129624999Y-92395443D01*
X129624472Y-92388246D01*
X129615994Y-92330645D01*
X129611483Y-92316127D01*
X129567127Y-92225784D01*
X129557730Y-92212658D01*
X129486848Y-92141899D01*
X129473706Y-92132526D01*
X129383278Y-92088324D01*
X129368769Y-92083839D01*
X129311722Y-92075517D01*
X129304595Y-92075000D01*
X129265680Y-92075000D01*
X129252995Y-92079122D01*
X129250000Y-92083243D01*
X129250000Y-92871820D01*
X129000000Y-92871820D01*
X129000000Y-92090681D01*
X128995878Y-92077996D01*
X128991757Y-92075001D01*
X128945443Y-92075001D01*
X128938246Y-92075528D01*
X128880645Y-92084006D01*
X128866127Y-92088517D01*
X128775784Y-92132873D01*
X128762658Y-92142270D01*
X128691899Y-92213152D01*
X128682526Y-92226294D01*
X128638324Y-92316722D01*
X128633839Y-92331231D01*
X128625517Y-92388278D01*
X128625000Y-92395405D01*
X128625000Y-92871820D01*
X127725500Y-92871820D01*
X127725500Y-92391782D01*
X127715358Y-92322888D01*
X127663932Y-92218145D01*
X127581350Y-92135707D01*
X127476518Y-92084464D01*
X127468916Y-92083355D01*
X127468913Y-92083354D01*
X127411763Y-92075017D01*
X127411761Y-92075017D01*
X127408218Y-92074500D01*
X127041782Y-92074500D01*
X127038199Y-92075028D01*
X127038192Y-92075028D01*
X126980501Y-92083521D01*
X126980499Y-92083522D01*
X126972888Y-92084642D01*
X126965982Y-92088033D01*
X126965981Y-92088033D01*
X126934171Y-92103651D01*
X126868145Y-92136068D01*
X126785707Y-92218650D01*
X126734464Y-92323482D01*
X126733355Y-92331084D01*
X126733354Y-92331087D01*
X126731203Y-92345834D01*
X126724500Y-92391782D01*
X126724500Y-93633218D01*
X126725028Y-93636801D01*
X126725028Y-93636808D01*
X126730812Y-93676096D01*
X126734642Y-93702112D01*
X126786068Y-93806855D01*
X126791859Y-93812636D01*
X126868650Y-93889293D01*
X126866459Y-93891487D01*
X126894381Y-93929215D01*
X126899500Y-93960636D01*
X126899500Y-94105836D01*
X126880593Y-94164027D01*
X126867127Y-94177852D01*
X126867455Y-94178180D01*
X126862871Y-94182764D01*
X126857718Y-94186718D01*
X126761464Y-94312159D01*
X126700956Y-94458238D01*
X126680318Y-94615000D01*
X114305500Y-94615000D01*
X114305500Y-94341146D01*
X114324407Y-94282955D01*
X114371698Y-94247738D01*
X114385643Y-94242841D01*
X114443184Y-94222634D01*
X114497164Y-94182764D01*
X114546193Y-94146550D01*
X114552150Y-94142150D01*
X114585129Y-94097500D01*
X114628238Y-94039136D01*
X114628239Y-94039135D01*
X114632634Y-94033184D01*
X114677519Y-93905369D01*
X114680500Y-93873834D01*
X114680500Y-93769500D01*
X114699407Y-93711309D01*
X114748907Y-93675345D01*
X114779500Y-93670500D01*
X115837466Y-93670500D01*
X115846095Y-93670877D01*
X115884807Y-93674264D01*
X115922350Y-93664204D01*
X115930784Y-93662334D01*
X115960517Y-93657092D01*
X115960519Y-93657091D01*
X115969045Y-93655588D01*
X115976544Y-93651258D01*
X115982029Y-93649262D01*
X115987316Y-93646796D01*
X115995684Y-93644554D01*
X116027511Y-93622268D01*
X116034795Y-93617627D01*
X116055639Y-93605593D01*
X116068455Y-93598194D01*
X116093430Y-93568430D01*
X116099264Y-93562062D01*
X116486100Y-93175226D01*
X116540617Y-93147449D01*
X116601049Y-93157020D01*
X116644314Y-93200285D01*
X116647568Y-93207345D01*
X116651569Y-93217005D01*
X116666723Y-93253589D01*
X116794241Y-93461679D01*
X116952741Y-93647259D01*
X117138321Y-93805759D01*
X117235814Y-93865503D01*
X117343091Y-93931243D01*
X117343096Y-93931245D01*
X117346411Y-93933277D01*
X117350002Y-93934764D01*
X117350007Y-93934767D01*
X117425349Y-93965974D01*
X117571888Y-94026672D01*
X117809198Y-94083646D01*
X117813063Y-94083950D01*
X117813068Y-94083951D01*
X118048625Y-94102489D01*
X118052500Y-94102794D01*
X118056375Y-94102489D01*
X118291932Y-94083951D01*
X118291937Y-94083950D01*
X118295802Y-94083646D01*
X118533112Y-94026672D01*
X118679651Y-93965974D01*
X118754993Y-93934767D01*
X118754998Y-93934764D01*
X118758589Y-93933277D01*
X118761904Y-93931245D01*
X118761909Y-93931243D01*
X118792756Y-93912340D01*
X121502500Y-93912340D01*
X121503448Y-93921962D01*
X121512202Y-93965974D01*
X121519521Y-93983642D01*
X121552889Y-94033582D01*
X121566418Y-94047111D01*
X121616358Y-94080479D01*
X121634026Y-94087798D01*
X121678038Y-94096552D01*
X121687660Y-94097500D01*
X122911820Y-94097500D01*
X122924505Y-94093378D01*
X122927500Y-94089257D01*
X122927500Y-94081820D01*
X123177500Y-94081820D01*
X123181622Y-94094505D01*
X123185743Y-94097500D01*
X124417340Y-94097500D01*
X124426962Y-94096552D01*
X124470974Y-94087798D01*
X124488642Y-94080479D01*
X124538582Y-94047111D01*
X124552111Y-94033582D01*
X124585479Y-93983642D01*
X124592798Y-93965974D01*
X124601552Y-93921962D01*
X124602500Y-93912340D01*
X124602500Y-92688180D01*
X124598378Y-92675495D01*
X124594257Y-92672500D01*
X123193180Y-92672500D01*
X123180495Y-92676622D01*
X123177500Y-92680743D01*
X123177500Y-94081820D01*
X122927500Y-94081820D01*
X122927500Y-92688180D01*
X122923378Y-92675495D01*
X122919257Y-92672500D01*
X121518180Y-92672500D01*
X121505495Y-92676622D01*
X121502500Y-92680743D01*
X121502500Y-93912340D01*
X118792756Y-93912340D01*
X118869186Y-93865503D01*
X118966679Y-93805759D01*
X119152259Y-93647259D01*
X119310759Y-93461679D01*
X119374518Y-93357634D01*
X119436243Y-93256909D01*
X119436245Y-93256904D01*
X119438277Y-93253589D01*
X119453431Y-93217005D01*
X119530185Y-93031701D01*
X119531672Y-93028112D01*
X119588646Y-92790802D01*
X119589573Y-92779031D01*
X119607489Y-92551375D01*
X119607794Y-92547500D01*
X119601833Y-92471762D01*
X119596722Y-92406820D01*
X121502500Y-92406820D01*
X121506622Y-92419505D01*
X121510743Y-92422500D01*
X122911820Y-92422500D01*
X122924505Y-92418378D01*
X122927500Y-92414257D01*
X122927500Y-92406820D01*
X123177500Y-92406820D01*
X123181622Y-92419505D01*
X123185743Y-92422500D01*
X124586820Y-92422500D01*
X124599505Y-92418378D01*
X124602500Y-92414257D01*
X124602500Y-91758218D01*
X127674500Y-91758218D01*
X127684642Y-91827112D01*
X127736068Y-91931855D01*
X127818650Y-92014293D01*
X127923482Y-92065536D01*
X127931084Y-92066645D01*
X127931087Y-92066646D01*
X127988237Y-92074983D01*
X127988239Y-92074983D01*
X127991782Y-92075500D01*
X128358218Y-92075500D01*
X128361801Y-92074972D01*
X128361808Y-92074972D01*
X128419499Y-92066479D01*
X128419501Y-92066478D01*
X128427112Y-92065358D01*
X128531855Y-92013932D01*
X128614293Y-91931350D01*
X128665536Y-91826518D01*
X128666645Y-91818916D01*
X128666646Y-91818913D01*
X128674983Y-91761763D01*
X128674983Y-91761761D01*
X128675500Y-91758218D01*
X128675500Y-91562000D01*
X128694407Y-91503809D01*
X128743907Y-91467845D01*
X128774500Y-91463000D01*
X130236666Y-91463000D01*
X130294857Y-91481907D01*
X130306670Y-91491996D01*
X131090504Y-92275830D01*
X131118281Y-92330347D01*
X131119500Y-92345834D01*
X131119500Y-93525501D01*
X131100593Y-93583692D01*
X131051093Y-93619656D01*
X131020500Y-93624501D01*
X130935668Y-93624501D01*
X130904566Y-93627440D01*
X130898879Y-93629437D01*
X130898875Y-93629438D01*
X130785503Y-93669251D01*
X130785502Y-93669252D01*
X130778524Y-93671702D01*
X130671070Y-93751070D01*
X130591702Y-93858524D01*
X130589252Y-93865502D01*
X130589251Y-93865503D01*
X130569425Y-93921962D01*
X130547440Y-93984566D01*
X130546872Y-93990574D01*
X130544719Y-94013352D01*
X130544500Y-94015667D01*
X130544501Y-94609332D01*
X130547440Y-94640434D01*
X130549437Y-94646121D01*
X130549438Y-94646125D01*
X130589251Y-94759497D01*
X130591702Y-94766476D01*
X130671070Y-94873930D01*
X130778524Y-94953298D01*
X130785502Y-94955748D01*
X130785503Y-94955749D01*
X130861003Y-94982262D01*
X130904566Y-94997560D01*
X130910574Y-94998128D01*
X130933356Y-95000282D01*
X130933366Y-95000282D01*
X130935667Y-95000500D01*
X131444781Y-95000500D01*
X131954332Y-95000499D01*
X131985434Y-94997560D01*
X131991121Y-94995563D01*
X131991125Y-94995562D01*
X132104497Y-94955749D01*
X132104498Y-94955748D01*
X132111476Y-94953298D01*
X132218930Y-94873930D01*
X132298298Y-94766476D01*
X132342560Y-94640434D01*
X132344356Y-94621434D01*
X132345282Y-94611644D01*
X132345282Y-94611634D01*
X132345500Y-94609333D01*
X132345499Y-94015668D01*
X132342560Y-93984566D01*
X132340563Y-93978879D01*
X132340562Y-93978875D01*
X132300749Y-93865503D01*
X132300748Y-93865502D01*
X132298298Y-93858524D01*
X132218930Y-93751070D01*
X132111476Y-93671702D01*
X132104498Y-93669252D01*
X132104497Y-93669251D01*
X132028270Y-93642483D01*
X131985434Y-93627440D01*
X131979426Y-93626872D01*
X131956644Y-93624718D01*
X131956634Y-93624718D01*
X131954333Y-93624500D01*
X131869500Y-93624500D01*
X131811309Y-93605593D01*
X131775345Y-93556093D01*
X131770500Y-93525500D01*
X131770500Y-92188535D01*
X131770877Y-92179906D01*
X131773509Y-92149821D01*
X131774264Y-92141194D01*
X131772023Y-92132830D01*
X131764205Y-92103651D01*
X131762336Y-92095222D01*
X131758682Y-92074500D01*
X131755588Y-92056955D01*
X131751257Y-92049454D01*
X131749259Y-92043964D01*
X131746796Y-92038683D01*
X131744554Y-92030316D01*
X131722268Y-91998489D01*
X131717627Y-91991205D01*
X131702523Y-91965044D01*
X131698194Y-91957545D01*
X131668429Y-91932569D01*
X131662061Y-91926735D01*
X130655769Y-90920443D01*
X130649934Y-90914075D01*
X130624955Y-90884306D01*
X130591292Y-90864871D01*
X130584011Y-90860232D01*
X130581556Y-90858513D01*
X130552184Y-90837946D01*
X130543816Y-90835704D01*
X130538529Y-90833238D01*
X130533044Y-90831242D01*
X130525545Y-90826912D01*
X130517019Y-90825409D01*
X130517017Y-90825408D01*
X130487284Y-90820166D01*
X130478849Y-90818296D01*
X130449674Y-90810478D01*
X130441307Y-90808236D01*
X130432678Y-90808991D01*
X130402595Y-90811623D01*
X130393966Y-90812000D01*
X128774500Y-90812000D01*
X128716309Y-90793093D01*
X128680345Y-90743593D01*
X128675500Y-90713000D01*
X128675500Y-90516782D01*
X128665358Y-90447888D01*
X128613932Y-90343145D01*
X128531350Y-90260707D01*
X128426518Y-90209464D01*
X128418916Y-90208355D01*
X128418913Y-90208354D01*
X128361763Y-90200017D01*
X128361761Y-90200017D01*
X128358218Y-90199500D01*
X127991782Y-90199500D01*
X127988199Y-90200028D01*
X127988192Y-90200028D01*
X127930501Y-90208521D01*
X127930499Y-90208522D01*
X127922888Y-90209642D01*
X127818145Y-90261068D01*
X127735707Y-90343650D01*
X127684464Y-90448482D01*
X127683355Y-90456084D01*
X127683354Y-90456087D01*
X127675024Y-90513192D01*
X127674500Y-90516782D01*
X127674500Y-91758218D01*
X124602500Y-91758218D01*
X124602500Y-91182660D01*
X124601552Y-91173038D01*
X124592798Y-91129026D01*
X124585479Y-91111358D01*
X124552111Y-91061418D01*
X124538582Y-91047889D01*
X124488642Y-91014521D01*
X124470974Y-91007202D01*
X124426962Y-90998448D01*
X124417340Y-90997500D01*
X123193180Y-90997500D01*
X123180495Y-91001622D01*
X123177500Y-91005743D01*
X123177500Y-92406820D01*
X122927500Y-92406820D01*
X122927500Y-91013180D01*
X122923378Y-91000495D01*
X122919257Y-90997500D01*
X121687660Y-90997500D01*
X121678038Y-90998448D01*
X121634026Y-91007202D01*
X121616358Y-91014521D01*
X121566418Y-91047889D01*
X121552889Y-91061418D01*
X121519521Y-91111358D01*
X121512202Y-91129026D01*
X121503448Y-91173038D01*
X121502500Y-91182660D01*
X121502500Y-92406820D01*
X119596722Y-92406820D01*
X119588951Y-92308068D01*
X119588950Y-92308063D01*
X119588646Y-92304198D01*
X119531672Y-92066888D01*
X119484075Y-91951978D01*
X119439767Y-91845007D01*
X119439764Y-91845002D01*
X119438277Y-91841411D01*
X119436245Y-91838096D01*
X119436243Y-91838091D01*
X119374518Y-91737366D01*
X119310759Y-91633321D01*
X119152259Y-91447741D01*
X118966679Y-91289241D01*
X118862634Y-91225482D01*
X118761909Y-91163757D01*
X118761904Y-91163755D01*
X118758589Y-91161723D01*
X118754998Y-91160236D01*
X118754993Y-91160233D01*
X118633597Y-91109950D01*
X118533112Y-91068328D01*
X118295802Y-91011354D01*
X118291937Y-91011050D01*
X118291932Y-91011049D01*
X118056375Y-90992511D01*
X118052500Y-90992206D01*
X118048625Y-90992511D01*
X117813068Y-91011049D01*
X117813063Y-91011050D01*
X117809198Y-91011354D01*
X117571888Y-91068328D01*
X117471403Y-91109950D01*
X117350007Y-91160233D01*
X117350002Y-91160236D01*
X117346411Y-91161723D01*
X117343096Y-91163755D01*
X117343091Y-91163757D01*
X117242366Y-91225482D01*
X117138321Y-91289241D01*
X116952741Y-91447741D01*
X116794241Y-91633321D01*
X116730482Y-91737366D01*
X116668757Y-91838091D01*
X116668755Y-91838096D01*
X116666723Y-91841411D01*
X116665236Y-91845002D01*
X116665233Y-91845007D01*
X116620925Y-91951978D01*
X116573328Y-92066888D01*
X116572420Y-92070669D01*
X116572418Y-92070676D01*
X116555319Y-92141899D01*
X116545160Y-92184215D01*
X116541857Y-92197971D01*
X116509888Y-92250140D01*
X116502378Y-92255954D01*
X116481979Y-92270238D01*
X116474719Y-92274864D01*
X116441045Y-92294306D01*
X116435475Y-92300944D01*
X116416074Y-92324065D01*
X116410240Y-92330433D01*
X116068174Y-92672500D01*
X115750170Y-92990504D01*
X115695653Y-93018281D01*
X115680166Y-93019500D01*
X114779500Y-93019500D01*
X114721309Y-93000593D01*
X114685345Y-92951093D01*
X114680500Y-92920500D01*
X114680500Y-92816166D01*
X114677519Y-92784631D01*
X114632634Y-92656816D01*
X114552150Y-92547850D01*
X114443184Y-92467366D01*
X114315369Y-92422481D01*
X114309362Y-92421913D01*
X114309361Y-92421913D01*
X114286145Y-92419718D01*
X114286135Y-92419718D01*
X114283834Y-92419500D01*
X113676166Y-92419500D01*
X113673865Y-92419718D01*
X113673855Y-92419718D01*
X113650639Y-92421913D01*
X113650638Y-92421913D01*
X113644631Y-92422481D01*
X113516816Y-92467366D01*
X113407850Y-92547850D01*
X113327366Y-92656816D01*
X113282481Y-92784631D01*
X113279500Y-92816166D01*
X113279500Y-93873834D01*
X113282481Y-93905369D01*
X113327366Y-94033184D01*
X113331761Y-94039135D01*
X113331762Y-94039136D01*
X113374871Y-94097500D01*
X113407850Y-94142150D01*
X113413807Y-94146550D01*
X113462837Y-94182764D01*
X113516816Y-94222634D01*
X113574357Y-94242841D01*
X113588302Y-94247738D01*
X113636941Y-94284858D01*
X113654500Y-94341146D01*
X113654500Y-94888854D01*
X113635593Y-94947045D01*
X113588302Y-94982262D01*
X113516816Y-95007366D01*
X113510865Y-95011761D01*
X113510864Y-95011762D01*
X113413807Y-95083450D01*
X113407850Y-95087850D01*
X113327366Y-95196816D01*
X113282481Y-95324631D01*
X113279500Y-95356166D01*
X113279500Y-96413834D01*
X112779888Y-96413834D01*
X112780000Y-96411446D01*
X112780000Y-96025680D01*
X112775878Y-96012995D01*
X112771757Y-96010000D01*
X112220680Y-96010000D01*
X112207995Y-96014122D01*
X112205000Y-96018243D01*
X112205000Y-96794319D01*
X111955000Y-96794319D01*
X111955000Y-96025680D01*
X111950878Y-96012995D01*
X111946757Y-96010000D01*
X111395681Y-96010000D01*
X111382996Y-96014122D01*
X111380001Y-96018243D01*
X111380001Y-96411443D01*
X104380500Y-96411443D01*
X104380500Y-95744320D01*
X111380000Y-95744320D01*
X111384122Y-95757005D01*
X111388243Y-95760000D01*
X111939320Y-95760000D01*
X111952005Y-95755878D01*
X111955000Y-95751757D01*
X111955000Y-95744320D01*
X112205000Y-95744320D01*
X112209122Y-95757005D01*
X112213243Y-95760000D01*
X112764319Y-95760000D01*
X112777004Y-95755878D01*
X112779999Y-95751757D01*
X112779999Y-95358557D01*
X112779780Y-95353914D01*
X112777589Y-95330731D01*
X112775024Y-95319035D01*
X112734638Y-95204034D01*
X112727791Y-95191101D01*
X112656192Y-95094165D01*
X112645835Y-95083808D01*
X112548899Y-95012209D01*
X112535966Y-95005362D01*
X112420969Y-94964978D01*
X112409266Y-94962410D01*
X112386082Y-94960218D01*
X112381446Y-94960000D01*
X112220680Y-94960000D01*
X112207995Y-94964122D01*
X112205000Y-94968243D01*
X112205000Y-95744320D01*
X111955000Y-95744320D01*
X111955000Y-94975681D01*
X111950878Y-94962996D01*
X111946757Y-94960001D01*
X111778557Y-94960001D01*
X111773914Y-94960220D01*
X111750731Y-94962411D01*
X111739035Y-94964976D01*
X111624034Y-95005362D01*
X111611101Y-95012209D01*
X111514165Y-95083808D01*
X111503808Y-95094165D01*
X111432209Y-95191101D01*
X111425362Y-95204034D01*
X111384978Y-95319031D01*
X111382410Y-95330734D01*
X111380218Y-95353918D01*
X111380000Y-95358554D01*
X111380000Y-95744320D01*
X104380500Y-95744320D01*
X104380500Y-93871443D01*
X111380001Y-93871443D01*
X111380220Y-93876086D01*
X111382411Y-93899269D01*
X111384976Y-93910965D01*
X111425362Y-94025966D01*
X111432209Y-94038899D01*
X111503808Y-94135835D01*
X111514165Y-94146192D01*
X111611101Y-94217791D01*
X111624034Y-94224638D01*
X111739031Y-94265022D01*
X111750734Y-94267590D01*
X111773918Y-94269782D01*
X111778554Y-94270000D01*
X111939320Y-94270000D01*
X111952005Y-94265878D01*
X111955000Y-94261757D01*
X111955000Y-94254319D01*
X112205000Y-94254319D01*
X112209122Y-94267004D01*
X112213243Y-94269999D01*
X112381443Y-94269999D01*
X112386086Y-94269780D01*
X112409269Y-94267589D01*
X112420965Y-94265024D01*
X112535966Y-94224638D01*
X112548899Y-94217791D01*
X112645835Y-94146192D01*
X112656192Y-94135835D01*
X112727791Y-94038899D01*
X112734638Y-94025966D01*
X112775022Y-93910969D01*
X112777590Y-93899266D01*
X112779782Y-93876082D01*
X112780000Y-93871446D01*
X112780000Y-93485680D01*
X112775878Y-93472995D01*
X112771757Y-93470000D01*
X112220680Y-93470000D01*
X112207995Y-93474122D01*
X112205000Y-93478243D01*
X112205000Y-94254319D01*
X111955000Y-94254319D01*
X111955000Y-93485680D01*
X111950878Y-93472995D01*
X111946757Y-93470000D01*
X111395681Y-93470000D01*
X111382996Y-93474122D01*
X111380001Y-93478243D01*
X111380001Y-93871443D01*
X104380500Y-93871443D01*
X104380500Y-93204320D01*
X111380000Y-93204320D01*
X111384122Y-93217005D01*
X111388243Y-93220000D01*
X111939320Y-93220000D01*
X111952005Y-93215878D01*
X111955000Y-93211757D01*
X111955000Y-93204320D01*
X112205000Y-93204320D01*
X112209122Y-93217005D01*
X112213243Y-93220000D01*
X112764319Y-93220000D01*
X112777004Y-93215878D01*
X112779999Y-93211757D01*
X112779999Y-92818557D01*
X112779780Y-92813913D01*
X112777589Y-92790731D01*
X112775024Y-92779035D01*
X112734638Y-92664034D01*
X112727791Y-92651101D01*
X112656192Y-92554165D01*
X112645835Y-92543808D01*
X112548899Y-92472209D01*
X112535966Y-92465362D01*
X112420969Y-92424978D01*
X112409266Y-92422410D01*
X112386082Y-92420218D01*
X112381446Y-92420000D01*
X112220680Y-92420000D01*
X112207995Y-92424122D01*
X112205000Y-92428243D01*
X112205000Y-93204320D01*
X111955000Y-93204320D01*
X111955000Y-92435681D01*
X111950878Y-92422996D01*
X111946757Y-92420001D01*
X111778557Y-92420001D01*
X111773914Y-92420220D01*
X111750731Y-92422411D01*
X111739035Y-92424976D01*
X111624034Y-92465362D01*
X111611101Y-92472209D01*
X111514165Y-92543808D01*
X111503808Y-92554165D01*
X111432209Y-92651101D01*
X111425362Y-92664034D01*
X111384978Y-92779031D01*
X111382410Y-92790734D01*
X111380219Y-92813913D01*
X111380000Y-92818554D01*
X111380000Y-93204320D01*
X104380500Y-93204320D01*
X104380500Y-89199281D01*
X104383057Y-89176926D01*
X104383141Y-89176565D01*
X104385655Y-89165718D01*
X104385656Y-89165000D01*
X104384413Y-89159549D01*
X104383791Y-89153995D01*
X104384076Y-89153963D01*
X104382302Y-89132915D01*
X104382317Y-89132651D01*
X104389767Y-89000000D01*
X105644341Y-89000000D01*
X105664937Y-89235408D01*
X105726097Y-89463663D01*
X105825965Y-89677829D01*
X105961505Y-89871401D01*
X106128599Y-90038495D01*
X106322171Y-90174035D01*
X106536337Y-90273903D01*
X106764592Y-90335063D01*
X106849431Y-90342486D01*
X106938870Y-90350311D01*
X106938878Y-90350311D01*
X106941034Y-90350500D01*
X107058966Y-90350500D01*
X107061122Y-90350311D01*
X107061130Y-90350311D01*
X107150569Y-90342486D01*
X107235408Y-90335063D01*
X107463663Y-90273903D01*
X107677829Y-90174035D01*
X107871401Y-90038495D01*
X108038495Y-89871401D01*
X108171554Y-89681374D01*
X108171554Y-89681373D01*
X108174035Y-89677830D01*
X108273903Y-89463663D01*
X108335063Y-89235408D01*
X108355659Y-89000000D01*
X132644341Y-89000000D01*
X132664937Y-89235408D01*
X132726097Y-89463663D01*
X132825965Y-89677829D01*
X132961505Y-89871401D01*
X133128599Y-90038495D01*
X133322171Y-90174035D01*
X133536337Y-90273903D01*
X133764592Y-90335063D01*
X133849431Y-90342486D01*
X133938870Y-90350311D01*
X133938878Y-90350311D01*
X133941034Y-90350500D01*
X134058966Y-90350500D01*
X134061122Y-90350311D01*
X134061130Y-90350311D01*
X134150569Y-90342486D01*
X134235408Y-90335063D01*
X134463663Y-90273903D01*
X134677829Y-90174035D01*
X134871401Y-90038495D01*
X135038495Y-89871401D01*
X135171554Y-89681374D01*
X135171554Y-89681373D01*
X135174035Y-89677830D01*
X135273903Y-89463663D01*
X135335063Y-89235408D01*
X135355659Y-89000000D01*
X135335063Y-88764592D01*
X135273903Y-88536337D01*
X135174035Y-88322171D01*
X135038495Y-88128599D01*
X134871401Y-87961505D01*
X134677829Y-87825965D01*
X134463663Y-87726097D01*
X134235408Y-87664937D01*
X134150569Y-87657514D01*
X134061130Y-87649689D01*
X134061122Y-87649689D01*
X134058966Y-87649500D01*
X133941034Y-87649500D01*
X133938878Y-87649689D01*
X133938870Y-87649689D01*
X133849431Y-87657514D01*
X133764592Y-87664937D01*
X133536337Y-87726097D01*
X133322171Y-87825965D01*
X133128599Y-87961505D01*
X132961505Y-88128599D01*
X132959026Y-88132140D01*
X132828447Y-88318625D01*
X132828446Y-88318627D01*
X132825965Y-88322170D01*
X132726097Y-88536337D01*
X132664937Y-88764592D01*
X132644341Y-89000000D01*
X108355659Y-89000000D01*
X108335063Y-88764592D01*
X108273903Y-88536337D01*
X108174035Y-88322171D01*
X108038495Y-88128599D01*
X107871401Y-87961505D01*
X107677829Y-87825965D01*
X107463663Y-87726097D01*
X107235408Y-87664937D01*
X107150569Y-87657514D01*
X107061130Y-87649689D01*
X107061122Y-87649689D01*
X107058966Y-87649500D01*
X106941034Y-87649500D01*
X106938878Y-87649689D01*
X106938870Y-87649689D01*
X106849431Y-87657514D01*
X106764592Y-87664937D01*
X106536337Y-87726097D01*
X106322171Y-87825965D01*
X106128599Y-87961505D01*
X105961505Y-88128599D01*
X105959026Y-88132140D01*
X105828447Y-88318625D01*
X105828446Y-88318627D01*
X105825965Y-88322170D01*
X105726097Y-88536337D01*
X105664937Y-88764592D01*
X105644341Y-89000000D01*
X104389767Y-89000000D01*
X104397792Y-88857101D01*
X104399034Y-88846074D01*
X104401766Y-88829998D01*
X104449757Y-88547539D01*
X104452227Y-88536715D01*
X104480262Y-88439402D01*
X104536062Y-88245721D01*
X104539727Y-88235246D01*
X104582435Y-88132140D01*
X104655614Y-87955470D01*
X104660428Y-87945474D01*
X104725107Y-87828447D01*
X104806910Y-87680437D01*
X104812806Y-87671052D01*
X104988054Y-87424063D01*
X104994967Y-87415395D01*
X105196757Y-87189593D01*
X105204593Y-87181757D01*
X105430395Y-86979967D01*
X105439063Y-86973054D01*
X105686052Y-86797806D01*
X105695437Y-86791910D01*
X105960480Y-86645425D01*
X105970470Y-86640614D01*
X106250249Y-86524726D01*
X106260721Y-86521062D01*
X106551715Y-86437227D01*
X106562539Y-86434757D01*
X106647698Y-86420288D01*
X106861078Y-86384034D01*
X106872102Y-86382792D01*
X107147654Y-86367316D01*
X107157626Y-86368166D01*
X107157626Y-86368138D01*
X107168777Y-86368158D01*
X107179641Y-86370656D01*
X107191641Y-86367941D01*
X107213488Y-86365500D01*
X133645983Y-86365500D01*
X133668169Y-86368018D01*
G37*
%TD.AperFunction*%
%TD*%
M02*
