%TF.GenerationSoftware,KiCad,Pcbnew,(6.0.5)*%
%TF.CreationDate,2022-05-30T14:14:04+05:00*%
%TF.ProjectId,multivib,6d756c74-6976-4696-922e-6b696361645f,rev?*%
%TF.SameCoordinates,Original*%
%TF.FileFunction,Legend,Top*%
%TF.FilePolarity,Positive*%
%FSLAX46Y46*%
G04 Gerber Fmt 4.6, Leading zero omitted, Abs format (unit mm)*
G04 Created by KiCad (PCBNEW (6.0.5)) date 2022-05-30 14:14:04*
%MOMM*%
%LPD*%
G01*
G04 APERTURE LIST*
%ADD10C,0.150000*%
%ADD11C,0.120000*%
G04 APERTURE END LIST*
D10*
X105569047Y-99131428D02*
X106330952Y-99131428D01*
X105950000Y-99512380D02*
X105950000Y-98750476D01*
X106021428Y-107060952D02*
X106021428Y-106299047D01*
X106497619Y-101393809D02*
X106497619Y-101584285D01*
X106450000Y-101679523D01*
X106354761Y-101774761D01*
X106164285Y-101822380D01*
X105830952Y-101822380D01*
X105640476Y-101774761D01*
X105545238Y-101679523D01*
X105497619Y-101584285D01*
X105497619Y-101393809D01*
X105545238Y-101298571D01*
X105640476Y-101203333D01*
X105830952Y-101155714D01*
X106164285Y-101155714D01*
X106354761Y-101203333D01*
X106450000Y-101298571D01*
X106497619Y-101393809D01*
X106497619Y-102250952D02*
X105688095Y-102250952D01*
X105592857Y-102298571D01*
X105545238Y-102346190D01*
X105497619Y-102441428D01*
X105497619Y-102631904D01*
X105545238Y-102727142D01*
X105592857Y-102774761D01*
X105688095Y-102822380D01*
X106497619Y-102822380D01*
X106497619Y-103155714D02*
X106497619Y-103727142D01*
X105497619Y-103441428D02*
X106497619Y-103441428D01*
X105497619Y-104584285D02*
X105497619Y-104012857D01*
X105497619Y-104298571D02*
X106497619Y-104298571D01*
X106354761Y-104203333D01*
X106259523Y-104108095D01*
X106211904Y-104012857D01*
X116745047Y-88336428D02*
X117506952Y-88336428D01*
X117126000Y-88717380D02*
X117126000Y-87955476D01*
X134612380Y-104346190D02*
X134612380Y-104155714D01*
X134660000Y-104060476D01*
X134755238Y-103965238D01*
X134945714Y-103917619D01*
X135279047Y-103917619D01*
X135469523Y-103965238D01*
X135564761Y-104060476D01*
X135612380Y-104155714D01*
X135612380Y-104346190D01*
X135564761Y-104441428D01*
X135469523Y-104536666D01*
X135279047Y-104584285D01*
X134945714Y-104584285D01*
X134755238Y-104536666D01*
X134660000Y-104441428D01*
X134612380Y-104346190D01*
X134612380Y-103489047D02*
X135421904Y-103489047D01*
X135517142Y-103441428D01*
X135564761Y-103393809D01*
X135612380Y-103298571D01*
X135612380Y-103108095D01*
X135564761Y-103012857D01*
X135517142Y-102965238D01*
X135421904Y-102917619D01*
X134612380Y-102917619D01*
X134612380Y-102584285D02*
X134612380Y-102012857D01*
X135612380Y-102298571D02*
X134612380Y-102298571D01*
X134707619Y-101727142D02*
X134660000Y-101679523D01*
X134612380Y-101584285D01*
X134612380Y-101346190D01*
X134660000Y-101250952D01*
X134707619Y-101203333D01*
X134802857Y-101155714D01*
X134898095Y-101155714D01*
X135040952Y-101203333D01*
X135612380Y-101774761D01*
X135612380Y-101155714D01*
X135231428Y-107695952D02*
X135231428Y-106934047D01*
X123603047Y-88336428D02*
X124364952Y-88336428D01*
X119221666Y-88717380D02*
X119221666Y-87717380D01*
X119602619Y-87717380D01*
X119697857Y-87765000D01*
X119745476Y-87812619D01*
X119793095Y-87907857D01*
X119793095Y-88050714D01*
X119745476Y-88145952D01*
X119697857Y-88193571D01*
X119602619Y-88241190D01*
X119221666Y-88241190D01*
X120126428Y-87717380D02*
X120364523Y-88717380D01*
X120555000Y-88003095D01*
X120745476Y-88717380D01*
X120983571Y-87717380D01*
X121935952Y-88717380D02*
X121602619Y-88241190D01*
X121364523Y-88717380D02*
X121364523Y-87717380D01*
X121745476Y-87717380D01*
X121840714Y-87765000D01*
X121888333Y-87812619D01*
X121935952Y-87907857D01*
X121935952Y-88050714D01*
X121888333Y-88145952D01*
X121840714Y-88193571D01*
X121745476Y-88241190D01*
X121364523Y-88241190D01*
X134779047Y-98496428D02*
X135540952Y-98496428D01*
X135160000Y-98877380D02*
X135160000Y-98115476D01*
%TO.C,Q2*%
X123642619Y-108934238D02*
X123595000Y-109029476D01*
X123499761Y-109124714D01*
X123356904Y-109267571D01*
X123309285Y-109362809D01*
X123309285Y-109458047D01*
X123547380Y-109410428D02*
X123499761Y-109505666D01*
X123404523Y-109600904D01*
X123214047Y-109648523D01*
X122880714Y-109648523D01*
X122690238Y-109600904D01*
X122595000Y-109505666D01*
X122547380Y-109410428D01*
X122547380Y-109219952D01*
X122595000Y-109124714D01*
X122690238Y-109029476D01*
X122880714Y-108981857D01*
X123214047Y-108981857D01*
X123404523Y-109029476D01*
X123499761Y-109124714D01*
X123547380Y-109219952D01*
X123547380Y-109410428D01*
X122642619Y-108600904D02*
X122595000Y-108553285D01*
X122547380Y-108458047D01*
X122547380Y-108219952D01*
X122595000Y-108124714D01*
X122642619Y-108077095D01*
X122737857Y-108029476D01*
X122833095Y-108029476D01*
X122975952Y-108077095D01*
X123547380Y-108648523D01*
X123547380Y-108029476D01*
%TO.C,Q3*%
X127984761Y-90082619D02*
X127889523Y-90035000D01*
X127794285Y-89939761D01*
X127651428Y-89796904D01*
X127556190Y-89749285D01*
X127460952Y-89749285D01*
X127508571Y-89987380D02*
X127413333Y-89939761D01*
X127318095Y-89844523D01*
X127270476Y-89654047D01*
X127270476Y-89320714D01*
X127318095Y-89130238D01*
X127413333Y-89035000D01*
X127508571Y-88987380D01*
X127699047Y-88987380D01*
X127794285Y-89035000D01*
X127889523Y-89130238D01*
X127937142Y-89320714D01*
X127937142Y-89654047D01*
X127889523Y-89844523D01*
X127794285Y-89939761D01*
X127699047Y-89987380D01*
X127508571Y-89987380D01*
X128270476Y-88987380D02*
X128889523Y-88987380D01*
X128556190Y-89368333D01*
X128699047Y-89368333D01*
X128794285Y-89415952D01*
X128841904Y-89463571D01*
X128889523Y-89558809D01*
X128889523Y-89796904D01*
X128841904Y-89892142D01*
X128794285Y-89939761D01*
X128699047Y-89987380D01*
X128413333Y-89987380D01*
X128318095Y-89939761D01*
X128270476Y-89892142D01*
%TO.C,C4*%
X110228333Y-96242142D02*
X110180714Y-96289761D01*
X110037857Y-96337380D01*
X109942619Y-96337380D01*
X109799761Y-96289761D01*
X109704523Y-96194523D01*
X109656904Y-96099285D01*
X109609285Y-95908809D01*
X109609285Y-95765952D01*
X109656904Y-95575476D01*
X109704523Y-95480238D01*
X109799761Y-95385000D01*
X109942619Y-95337380D01*
X110037857Y-95337380D01*
X110180714Y-95385000D01*
X110228333Y-95432619D01*
X111085476Y-95670714D02*
X111085476Y-96337380D01*
X110847380Y-95289761D02*
X110609285Y-96004047D01*
X111228333Y-96004047D01*
%TO.C,C3*%
X110228333Y-93702142D02*
X110180714Y-93749761D01*
X110037857Y-93797380D01*
X109942619Y-93797380D01*
X109799761Y-93749761D01*
X109704523Y-93654523D01*
X109656904Y-93559285D01*
X109609285Y-93368809D01*
X109609285Y-93225952D01*
X109656904Y-93035476D01*
X109704523Y-92940238D01*
X109799761Y-92845000D01*
X109942619Y-92797380D01*
X110037857Y-92797380D01*
X110180714Y-92845000D01*
X110228333Y-92892619D01*
X110561666Y-92797380D02*
X111180714Y-92797380D01*
X110847380Y-93178333D01*
X110990238Y-93178333D01*
X111085476Y-93225952D01*
X111133095Y-93273571D01*
X111180714Y-93368809D01*
X111180714Y-93606904D01*
X111133095Y-93702142D01*
X111085476Y-93749761D01*
X110990238Y-93797380D01*
X110704523Y-93797380D01*
X110609285Y-93749761D01*
X110561666Y-93702142D01*
%TO.C,R2*%
X121007380Y-99861666D02*
X120531190Y-100195000D01*
X121007380Y-100433095D02*
X120007380Y-100433095D01*
X120007380Y-100052142D01*
X120055000Y-99956904D01*
X120102619Y-99909285D01*
X120197857Y-99861666D01*
X120340714Y-99861666D01*
X120435952Y-99909285D01*
X120483571Y-99956904D01*
X120531190Y-100052142D01*
X120531190Y-100433095D01*
X120102619Y-99480714D02*
X120055000Y-99433095D01*
X120007380Y-99337857D01*
X120007380Y-99099761D01*
X120055000Y-99004523D01*
X120102619Y-98956904D01*
X120197857Y-98909285D01*
X120293095Y-98909285D01*
X120435952Y-98956904D01*
X121007380Y-99528333D01*
X121007380Y-98909285D01*
%TO.C,C2*%
X121547142Y-103036666D02*
X121594761Y-103084285D01*
X121642380Y-103227142D01*
X121642380Y-103322380D01*
X121594761Y-103465238D01*
X121499523Y-103560476D01*
X121404285Y-103608095D01*
X121213809Y-103655714D01*
X121070952Y-103655714D01*
X120880476Y-103608095D01*
X120785238Y-103560476D01*
X120690000Y-103465238D01*
X120642380Y-103322380D01*
X120642380Y-103227142D01*
X120690000Y-103084285D01*
X120737619Y-103036666D01*
X120737619Y-102655714D02*
X120690000Y-102608095D01*
X120642380Y-102512857D01*
X120642380Y-102274761D01*
X120690000Y-102179523D01*
X120737619Y-102131904D01*
X120832857Y-102084285D01*
X120928095Y-102084285D01*
X121070952Y-102131904D01*
X121642380Y-102703333D01*
X121642380Y-102084285D01*
%TO.C,Q1*%
X118435619Y-108934238D02*
X118388000Y-109029476D01*
X118292761Y-109124714D01*
X118149904Y-109267571D01*
X118102285Y-109362809D01*
X118102285Y-109458047D01*
X118340380Y-109410428D02*
X118292761Y-109505666D01*
X118197523Y-109600904D01*
X118007047Y-109648523D01*
X117673714Y-109648523D01*
X117483238Y-109600904D01*
X117388000Y-109505666D01*
X117340380Y-109410428D01*
X117340380Y-109219952D01*
X117388000Y-109124714D01*
X117483238Y-109029476D01*
X117673714Y-108981857D01*
X118007047Y-108981857D01*
X118197523Y-109029476D01*
X118292761Y-109124714D01*
X118340380Y-109219952D01*
X118340380Y-109410428D01*
X118340380Y-108029476D02*
X118340380Y-108600904D01*
X118340380Y-108315190D02*
X117340380Y-108315190D01*
X117483238Y-108410428D01*
X117578476Y-108505666D01*
X117626095Y-108600904D01*
%TO.C,C1*%
X116467142Y-103036666D02*
X116514761Y-103084285D01*
X116562380Y-103227142D01*
X116562380Y-103322380D01*
X116514761Y-103465238D01*
X116419523Y-103560476D01*
X116324285Y-103608095D01*
X116133809Y-103655714D01*
X115990952Y-103655714D01*
X115800476Y-103608095D01*
X115705238Y-103560476D01*
X115610000Y-103465238D01*
X115562380Y-103322380D01*
X115562380Y-103227142D01*
X115610000Y-103084285D01*
X115657619Y-103036666D01*
X116562380Y-102084285D02*
X116562380Y-102655714D01*
X116562380Y-102370000D02*
X115562380Y-102370000D01*
X115705238Y-102465238D01*
X115800476Y-102560476D01*
X115848095Y-102655714D01*
%TO.C,R5*%
X128135333Y-95321380D02*
X127802000Y-94845190D01*
X127563904Y-95321380D02*
X127563904Y-94321380D01*
X127944857Y-94321380D01*
X128040095Y-94369000D01*
X128087714Y-94416619D01*
X128135333Y-94511857D01*
X128135333Y-94654714D01*
X128087714Y-94749952D01*
X128040095Y-94797571D01*
X127944857Y-94845190D01*
X127563904Y-94845190D01*
X129040095Y-94321380D02*
X128563904Y-94321380D01*
X128516285Y-94797571D01*
X128563904Y-94749952D01*
X128659142Y-94702333D01*
X128897238Y-94702333D01*
X128992476Y-94749952D01*
X129040095Y-94797571D01*
X129087714Y-94892809D01*
X129087714Y-95130904D01*
X129040095Y-95226142D01*
X128992476Y-95273761D01*
X128897238Y-95321380D01*
X128659142Y-95321380D01*
X128563904Y-95273761D01*
X128516285Y-95226142D01*
%TO.C,D1*%
X132770904Y-95575380D02*
X132770904Y-94575380D01*
X133009000Y-94575380D01*
X133151857Y-94623000D01*
X133247095Y-94718238D01*
X133294714Y-94813476D01*
X133342333Y-95003952D01*
X133342333Y-95146809D01*
X133294714Y-95337285D01*
X133247095Y-95432523D01*
X133151857Y-95527761D01*
X133009000Y-95575380D01*
X132770904Y-95575380D01*
X134294714Y-95575380D02*
X133723285Y-95575380D01*
X134009000Y-95575380D02*
X134009000Y-94575380D01*
X133913761Y-94718238D01*
X133818523Y-94813476D01*
X133723285Y-94861095D01*
%TO.C,R1*%
X118467380Y-99861666D02*
X117991190Y-100195000D01*
X118467380Y-100433095D02*
X117467380Y-100433095D01*
X117467380Y-100052142D01*
X117515000Y-99956904D01*
X117562619Y-99909285D01*
X117657857Y-99861666D01*
X117800714Y-99861666D01*
X117895952Y-99909285D01*
X117943571Y-99956904D01*
X117991190Y-100052142D01*
X117991190Y-100433095D01*
X118467380Y-98909285D02*
X118467380Y-99480714D01*
X118467380Y-99195000D02*
X117467380Y-99195000D01*
X117610238Y-99290238D01*
X117705476Y-99385476D01*
X117753095Y-99480714D01*
%TO.C,R4*%
X126087380Y-99861666D02*
X125611190Y-100195000D01*
X126087380Y-100433095D02*
X125087380Y-100433095D01*
X125087380Y-100052142D01*
X125135000Y-99956904D01*
X125182619Y-99909285D01*
X125277857Y-99861666D01*
X125420714Y-99861666D01*
X125515952Y-99909285D01*
X125563571Y-99956904D01*
X125611190Y-100052142D01*
X125611190Y-100433095D01*
X125420714Y-99004523D02*
X126087380Y-99004523D01*
X125039761Y-99242619D02*
X125754047Y-99480714D01*
X125754047Y-98861666D01*
%TO.C,R3*%
X123547380Y-99861666D02*
X123071190Y-100195000D01*
X123547380Y-100433095D02*
X122547380Y-100433095D01*
X122547380Y-100052142D01*
X122595000Y-99956904D01*
X122642619Y-99909285D01*
X122737857Y-99861666D01*
X122880714Y-99861666D01*
X122975952Y-99909285D01*
X123023571Y-99956904D01*
X123071190Y-100052142D01*
X123071190Y-100433095D01*
X122547380Y-99528333D02*
X122547380Y-98909285D01*
X122928333Y-99242619D01*
X122928333Y-99099761D01*
X122975952Y-99004523D01*
X123023571Y-98956904D01*
X123118809Y-98909285D01*
X123356904Y-98909285D01*
X123452142Y-98956904D01*
X123499761Y-99004523D01*
X123547380Y-99099761D01*
X123547380Y-99385476D01*
X123499761Y-99480714D01*
X123452142Y-99528333D01*
D11*
%TO.C,J1*%
X114937500Y-108077500D02*
X107117500Y-108077500D01*
X114937500Y-97857500D02*
X114937500Y-108077500D01*
X107117500Y-108077500D02*
X107117500Y-97857500D01*
X114937500Y-97857500D02*
X107117500Y-97857500D01*
X115247500Y-97547500D02*
X113247500Y-97547500D01*
X115247500Y-97547500D02*
X115247500Y-99547500D01*
%TO.C,Q2*%
X123190000Y-107605000D02*
X123840000Y-107605000D01*
X123190000Y-104485000D02*
X121515000Y-104485000D01*
X123190000Y-107605000D02*
X122540000Y-107605000D01*
X123190000Y-104485000D02*
X123840000Y-104485000D01*
%TO.C,Q3*%
X129735000Y-92075000D02*
X129735000Y-92725000D01*
X126615000Y-92075000D02*
X126615000Y-93750000D01*
X129735000Y-92075000D02*
X129735000Y-91425000D01*
X126615000Y-92075000D02*
X126615000Y-91425000D01*
%TO.C,C4*%
X113291252Y-95150000D02*
X112768748Y-95150000D01*
X113291252Y-96620000D02*
X112768748Y-96620000D01*
%TO.C,C3*%
X113291252Y-92610000D02*
X112768748Y-92610000D01*
X113291252Y-94080000D02*
X112768748Y-94080000D01*
%TO.C,R2*%
X120115000Y-99467936D02*
X120115000Y-99922064D01*
X118645000Y-99467936D02*
X118645000Y-99922064D01*
%TO.C,J2*%
X125972500Y-97467500D02*
X125972500Y-95467500D01*
X125662500Y-97157500D02*
X115442500Y-97157500D01*
X115442500Y-89337500D02*
X125662500Y-89337500D01*
X115442500Y-97157500D02*
X115442500Y-89337500D01*
X125662500Y-97157500D02*
X125662500Y-89337500D01*
X125972500Y-97467500D02*
X123972500Y-97467500D01*
%TO.C,C2*%
X123451252Y-103605000D02*
X122928748Y-103605000D01*
X123451252Y-102135000D02*
X122928748Y-102135000D01*
%TO.C,Q1*%
X118110000Y-104485000D02*
X118760000Y-104485000D01*
X118110000Y-107605000D02*
X117460000Y-107605000D01*
X118110000Y-104485000D02*
X117460000Y-104485000D01*
X118110000Y-107605000D02*
X119785000Y-107605000D01*
%TO.C,C1*%
X118371252Y-103605000D02*
X117848748Y-103605000D01*
X118371252Y-102135000D02*
X117848748Y-102135000D01*
%TO.C,R5*%
X128497064Y-95785000D02*
X128042936Y-95785000D01*
X128497064Y-97255000D02*
X128042936Y-97255000D01*
%TO.C,J3*%
X125890000Y-108330000D02*
X127890000Y-108330000D01*
X126200000Y-108020000D02*
X134020000Y-108020000D01*
X126200000Y-108020000D02*
X126200000Y-97800000D01*
X134020000Y-97800000D02*
X134020000Y-108020000D01*
X125890000Y-108330000D02*
X125890000Y-106330000D01*
X126200000Y-97800000D02*
X134020000Y-97800000D01*
%TO.C,D1*%
X132405000Y-93565000D02*
X130485000Y-93565000D01*
X130485000Y-93565000D02*
X130485000Y-96250000D01*
X132405000Y-96250000D02*
X132405000Y-93565000D01*
%TO.C,R1*%
X116105000Y-99467936D02*
X116105000Y-99922064D01*
X117575000Y-99467936D02*
X117575000Y-99922064D01*
%TO.C,R4*%
X123725000Y-99467936D02*
X123725000Y-99922064D01*
X125195000Y-99467936D02*
X125195000Y-99922064D01*
%TO.C,R3*%
X121185000Y-99467936D02*
X121185000Y-99922064D01*
X122655000Y-99467936D02*
X122655000Y-99922064D01*
%TD*%
M02*
